<?xml version="1.0" encoding="utf-8"?>
<!-- Generator: Adobe Illustrator 16.0.0, SVG Export Plug-In . SVG Version: 6.00 Build 0)  -->
<!DOCTYPE svg PUBLIC "-//W3C//DTD SVG 1.1//EN" "http://www.w3.org/Graphics/SVG/1.1/DTD/svg11.dtd">
<svg version="1.1" id="Layer_1" xmlns="http://www.w3.org/2000/svg" xmlns:xlink="http://www.w3.org/1999/xlink" x="0px" y="0px"
	 width="808.928px" height="272.616px" viewBox="-440.334 -136.281 808.928 272.616"
	 enable-background="new -440.334 -136.281 808.928 272.616" xml:space="preserve">
<path fill="#231F20" d="M168.82,43.718c1.659,3.415-0.077,7.68-3.867,9.52c-3.797,1.845-8.212,0.571-9.871-2.844
	s0.069-7.675,3.867-9.52C162.738,39.033,167.161,40.302,168.82,43.718z"/>
<g>
	<path fill="#231F20" d="M-418.406,128.655h-15.521l-3.344,7.441h-3.064l12.734-27.857h2.906l12.735,27.857h-3.104L-418.406,128.655
		z M-419.481,126.268l-6.686-14.965l-6.686,14.965H-419.481z"/>
	<path fill="#231F20" d="M-375.508,108.239h11.342c2.946,0,5.545,0.591,7.801,1.771s4.005,2.826,5.254,4.936
		c1.247,2.108,1.87,4.517,1.87,7.222c0,2.707-0.623,5.115-1.87,7.225c-1.249,2.108-2.999,3.754-5.254,4.934
		c-2.255,1.181-4.854,1.771-7.801,1.771h-11.342V108.239z M-364.325,133.55c2.44,0,4.577-0.484,6.408-1.452
		c1.829-0.969,3.249-2.309,4.258-4.02c1.007-1.712,1.511-3.682,1.511-5.91s-0.503-4.198-1.511-5.91
		c-1.009-1.711-2.429-3.05-4.258-4.019c-1.831-0.969-3.967-1.453-6.408-1.453h-8.237v22.764H-364.325z"/>
	<path fill="#231F20" d="M-310.799,108.239h11.341c2.946,0,5.545,0.591,7.801,1.771c2.256,1.181,4.006,2.826,5.254,4.936
		c1.247,2.108,1.87,4.517,1.87,7.222c0,2.707-0.623,5.115-1.87,7.225c-1.248,2.108-2.998,3.754-5.254,4.934
		c-2.255,1.181-4.854,1.771-7.801,1.771h-11.341V108.239z M-299.616,133.55c2.441,0,4.577-0.484,6.408-1.452
		c1.829-0.969,3.25-2.309,4.258-4.02c1.007-1.712,1.511-3.682,1.511-5.91s-0.503-4.198-1.511-5.91
		c-1.009-1.711-2.429-3.05-4.258-4.019c-1.831-0.969-3.967-1.453-6.408-1.453h-8.237v22.764H-299.616z"/>
	<path fill="#231F20" d="M-243.704,108.239h2.946v27.857h-2.946V108.239z"/>
	<path fill="#231F20" d="M-195.212,134.505c-2.215-1.219-3.954-2.911-5.213-5.074c-1.26-2.161-1.889-4.582-1.889-7.263
		c0-2.678,0.629-5.1,1.889-7.263c1.26-2.161,3.004-3.853,5.232-5.074c2.229-1.22,4.724-1.829,7.483-1.829
		c2.068,0,3.98,0.344,5.73,1.034c1.752,0.69,3.236,1.698,4.457,3.023l-1.87,1.872c-2.177-2.202-4.922-3.304-8.239-3.304
		c-2.202,0-4.205,0.504-6.008,1.513c-1.804,1.007-3.219,2.387-4.239,4.139c-1.021,1.75-1.532,3.714-1.532,5.889
		c0,2.177,0.512,4.139,1.532,5.891c1.021,1.75,2.435,3.13,4.239,4.139c1.804,1.008,3.807,1.511,6.008,1.511
		c3.344,0,6.089-1.113,8.239-3.342l1.87,1.87c-1.221,1.327-2.713,2.342-4.477,3.045c-1.765,0.704-3.681,1.055-5.751,1.055
		C-190.51,136.336-192.998,135.726-195.212,134.505z"/>
	<path fill="#231F20" d="M-134.345,110.786h-9.788v-2.547h22.522v2.547h-9.788v25.311h-2.946V110.786z"/>
	<path fill="#231F20" d="M-88.123,135.659c-0.413-0.425-0.617-0.941-0.617-1.552c0-0.609,0.205-1.121,0.617-1.531
		c0.411-0.411,0.909-0.618,1.492-0.618c0.584,0,1.088,0.207,1.513,0.618c0.424,0.41,0.637,0.922,0.637,1.531
		c0,0.61-0.212,1.127-0.637,1.552s-0.928,0.637-1.513,0.637C-87.214,136.296-87.712,136.084-88.123,135.659z"/>
	<path fill="#231F20" d="M-42.198,134.505c-2.215-1.219-3.953-2.911-5.213-5.074c-1.26-2.161-1.889-4.582-1.889-7.263
		c0-2.678,0.629-5.1,1.889-7.263c1.26-2.161,3.004-3.853,5.233-5.074c2.229-1.22,4.723-1.829,7.482-1.829
		c2.068,0,3.98,0.344,5.73,1.034c1.752,0.69,3.236,1.698,4.457,3.023l-1.87,1.872c-2.176-2.202-4.922-3.304-8.239-3.304
		c-2.202,0-4.204,0.504-6.008,1.513c-1.804,1.007-3.218,2.387-4.239,4.139c-1.021,1.75-1.532,3.714-1.532,5.889
		c0,2.177,0.511,4.139,1.532,5.891c1.021,1.75,2.435,3.13,4.239,4.139c1.804,1.008,3.807,1.511,6.008,1.511
		c3.344,0,6.089-1.113,8.239-3.342l1.87,1.87c-1.221,1.327-2.713,2.342-4.476,3.045c-1.766,0.704-3.682,1.055-5.752,1.055
		C-37.496,136.336-39.982,135.726-42.198,134.505z"/>
	<path fill="#231F20" d="M32.637,136.096l-6.367-8.954c-0.716,0.081-1.458,0.119-2.229,0.119h-7.48v8.835h-2.946v-27.857h10.427
		c3.557,0,6.341,0.851,8.356,2.547c2.017,1.698,3.025,4.034,3.025,7.004c0,2.177-0.552,4.014-1.651,5.513
		c-1.102,1.499-2.672,2.58-4.716,3.243l6.806,9.551H32.637z M30.289,122.925c1.458-1.22,2.189-2.932,2.189-5.135
		c0-2.254-0.731-3.984-2.189-5.192c-1.459-1.208-3.567-1.812-6.327-1.812h-7.401v13.97h7.401
		C26.722,124.756,28.83,124.145,30.289,122.925z"/>
	<path fill="#231F20" d="M93.922,133.55v2.547h-19.7v-27.857h19.102v2.547H77.17v9.91h14.405v2.506H77.17v10.348H93.922z"/>
	<path fill="#231F20" d="M150.154,128.655h-15.521l-3.342,7.441h-3.064l12.734-27.857h2.906l12.734,27.857h-3.106L150.154,128.655z
		 M149.082,126.268l-6.688-14.965l-6.685,14.965H149.082z"/>
	<path fill="#231F20" d="M197.075,110.786h-9.79v-2.547h22.524v2.547h-9.79v25.311h-2.944V110.786z"/>
	<path fill="#231F20" d="M246.339,108.239h2.948v27.857h-2.948V108.239z"/>
	<path fill="#231F20" d="M313.036,108.239l-12.337,27.857h-2.901l-12.337-27.857h3.184l10.662,24.195l10.747-24.195H313.036z"/>
	<path fill="#231F20" d="M368.594,133.55v2.547h-19.7v-27.857h19.102v2.547h-16.157v9.91h14.405v2.506h-14.405v10.348H368.594z"/>
</g>
<path fill="#231F20" d="M106.027-22.319c-4.257,8.339-21.392,11.113-29.434,13.21C64.156-5.866,50.923-3.196,38.015-3.403
	c-24.678-0.397-0.257-31.07,1.443-41.124c0.452-2.674-0.666-5.281-3.45-6.077C30-52.32,21.012-40.918,16.882-37.654
	C6.099-29.134-5.263-21.34-16.829-13.927C-37.301-0.811-58.908,10.532-81.14,20.349c-31.702,14.001-70.38,29.02-105.778,25.531
	c-9.336-0.921-16.081-4.364-17.277-14.101c-1.191-9.701,2.107-19.045,6.898-27.332c13.019-22.517,36.803-38.651,58.507-51.861
	c26.541-16.154,55.196-28.93,84.46-39.262c23.421-8.27,48.238-15.824,73.153-17.518c6.208-0.421,14.076-0.93,19.711,2.063
	c1.37,0.727,2.014,1.659,2.064,2.065c0.156,1.237,0.029,1.563-0.25,2.652c-0.673,2.64,1.819-1.321-0.646,0.911
	C13.71-72.975-20.606-66.006-54.157-61.143c-30.188,4.375-60.858,7.339-91.389,6.524c-16.695-0.447-55.749-0.773-59.05-23.428
	c-0.916-6.284-10.434-3.603-9.526,2.626c3.844,26.381,41.899,29.229,62.289,30.417c35.233,2.053,70.983-2.221,105.782-7.42
	c33.581-5.018,65.988-13.84,92.193-36.608c10.827-9.407,0.832-22.008-10.097-24.252c-19.45-3.994-41.711,2.096-60.411,7.001
	c-28.727,7.534-56.677,18.352-83.482,31.078c-26.369,12.518-52.116,27.495-74.095,46.847
	c-15.889,13.989-31.275,32.531-32.333,54.608c-2.01,41.949,54.74,29.623,79.524,23.353c29.239-7.399,57.425-19.271,84.262-32.902
	C-34.556,8.608-19.151-0.505-4.237-10.343c7.61-5.021,15.012-10.347,22.29-15.836c2.764-2.085,5.485-4.229,8.201-6.376
	c1.586-1.262,3.16-2.537,4.725-3.823c2.009-1.638,7.011-3.383,2.404-4.699c-1.15-2.026-2.3-4.051-3.45-6.077
	c-0.192,1.143-3.748,6.945-5.01,9.484c-2.869,5.774-5.314,11.82-6.708,18.125C15.392-6.767,20.896,4.075,34.342,6.136
	C48.715,8.34,65.394,3.857,79.22,0.417c10.818-2.69,29.663-6.633,35.336-17.75C117.446-22.994,108.924-27.994,106.027-22.319
	L106.027-22.319z"/>
<path fill="#231F20" d="M137.537,40.817c-8.402-2.282-8.337-16.698-8.732-23.637c-0.839-14.733-0.154-29.392,1.316-44.063
	c1.501-14.983,4.074-29.721,7.054-44.464c3.106-15.364,6.456-30.853,11.625-45.673c0.884-2.535,1.908-4.992,3.158-7.367
	c2.649-5.034-1.325-0.659-1.275-0.216c1.594,13.762-1.452,28.485-3.91,41.945C141.4-53.259,132.15-23.417,118.056,3
	c-5.976,11.203-13.514,21.479-23.086,29.847c-5.121,4.477-23.904,17.159-30.275,8.548c-5.203-7.031,6.118-23.129,9.622-28.708
	c6.998-11.143,15.607-21.674,25.54-30.333c1.99-1.735,4.326-3.681,6.833-4.619c-0.405,0.152-1.044-3.5-1.492,1.043
	c-0.625,6.339,9.26,6.279,9.879,0c0.809-8.201-5.072-13.278-12.865-9.819C92.688-26.815,84.963-17.392,78.459-9.6
	C69.223,1.465,42.062,34.674,58.61,49.197c14.332,12.578,36.658-2.99,47.299-12.94c18.518-17.311,28.679-42.837,36.931-66.223
	c9.657-27.371,16.966-56.985,17.865-86.11c0.183-5.887,1.011-15.766-5.017-19.297c-3.545-2.077-7.533-0.322-9.941,2.577
	c-7.405,8.915-9.798,23.133-12.543,34.019c-3.549,14.071-6.404,28.334-8.959,42.616c-3.915,21.892-6.152,44.311-5.628,66.551
	c0.316,13.383,0.247,35.591,16.292,39.956C141.068,52.018,143.677,42.488,137.537,40.817L137.537,40.817z"/>
</svg>
