<?xml version="1.0" encoding="utf-8"?>
<!-- Generator: Adobe Illustrator 16.0.0, SVG Export Plug-In . SVG Version: 6.00 Build 0)  -->
<!DOCTYPE svg PUBLIC "-//W3C//DTD SVG 1.1//EN" "http://www.w3.org/Graphics/SVG/1.1/DTD/svg11.dtd">
<svg version="1.1" id="Layer_1" xmlns="http://www.w3.org/2000/svg" xmlns:xlink="http://www.w3.org/1999/xlink" x="0px" y="0px"
	 width="431.652px" height="150.326px" viewBox="0 0 431.652 150.326" enable-background="new 0 0 431.652 150.326"
	 xml:space="preserve">
<g>
	<path fill="#231F20" d="M50.059,82.987h-18.72l-4.032,8.976h-3.696l15.36-33.6h3.504l15.36,33.6h-3.744L50.059,82.987z
		 M48.763,80.106l-8.064-18.048l-8.063,18.048H48.763z"/>
	<path fill="#231F20" d="M101.802,58.363h13.681c3.552,0,6.688,0.712,9.407,2.136s4.832,3.408,6.337,5.952
		c1.503,2.544,2.256,5.447,2.256,8.712c0,3.264-0.753,6.168-2.256,8.712c-1.505,2.544-3.617,4.528-6.337,5.952
		s-5.855,2.136-9.407,2.136h-13.681V58.363z M115.29,88.891c2.943,0,5.521-0.583,7.729-1.752c2.208-1.168,3.919-2.784,5.136-4.848
		c1.216-2.064,1.824-4.44,1.824-7.128c0-2.688-0.608-5.064-1.824-7.128c-1.217-2.064-2.928-3.68-5.136-4.849
		c-2.208-1.167-4.785-1.752-7.729-1.752h-9.936v27.456H115.29z"/>
	<path fill="#929497" d="M179.85,58.363h13.681c3.552,0,6.688,0.712,9.407,2.136s4.832,3.408,6.337,5.952
		c1.503,2.544,2.256,5.447,2.256,8.712c0,3.264-0.753,6.168-2.256,8.712c-1.505,2.544-3.617,4.528-6.337,5.952
		s-5.855,2.136-9.407,2.136H179.85V58.363z M193.338,88.891c2.943,0,5.521-0.583,7.729-1.752c2.208-1.168,3.919-2.784,5.136-4.848
		c1.216-2.064,1.824-4.44,1.824-7.128c0-2.688-0.608-5.064-1.824-7.128c-1.217-2.064-2.928-3.68-5.136-4.849
		c-2.208-1.167-4.785-1.752-7.729-1.752h-9.936v27.456H193.338z"/>
	<path fill="#929497" d="M260.777,58.363h3.553v33.6h-3.553V58.363z"/>
	<path fill="#929497" d="M319.265,90.043c-2.672-1.472-4.768-3.512-6.287-6.12c-1.521-2.607-2.281-5.527-2.281-8.76
		s0.76-6.151,2.281-8.76c1.52-2.608,3.623-4.648,6.311-6.12c2.689-1.472,5.695-2.208,9.025-2.208c2.496,0,4.799,0.416,6.912,1.248
		c2.111,0.832,3.902,2.048,5.375,3.647l-2.256,2.256c-2.625-2.655-5.936-3.983-9.936-3.983c-2.656,0-5.072,0.608-7.248,1.823
		c-2.178,1.217-3.881,2.881-5.113,4.992c-1.23,2.112-1.848,4.48-1.848,7.104s0.617,4.992,1.848,7.104
		c1.232,2.112,2.936,3.776,5.113,4.992c2.176,1.217,4.592,1.824,7.248,1.824c4.031,0,7.344-1.344,9.936-4.032l2.256,2.256
		c-1.473,1.601-3.271,2.825-5.4,3.672c-2.129,0.849-4.439,1.272-6.936,1.272C324.937,92.251,321.937,91.516,319.265,90.043z"/>
	<path fill="#929497" d="M392.681,61.435h-11.809v-3.071h27.168v3.071h-11.809v30.528h-3.551V61.435z"/>
</g>
</svg>
