<?xml version="1.0" encoding="utf-8"?>
<!-- Generator: Adobe Illustrator 16.0.0, SVG Export Plug-In . SVG Version: 6.00 Build 0)  -->
<!DOCTYPE svg PUBLIC "-//W3C//DTD SVG 1.1//EN" "http://www.w3.org/Graphics/SVG/1.1/DTD/svg11.dtd">
<svg version="1.1" id="Layer_1" xmlns="http://www.w3.org/2000/svg" xmlns:xlink="http://www.w3.org/1999/xlink" x="0px" y="0px"
	 width="1744.564px" height="340.334px" viewBox="-856.696 -153.604 1744.564 340.334"
	 enable-background="new -856.696 -153.604 1744.564 340.334" xml:space="preserve">
<path d="M-166.702-54.083c49.833,0,72.541,37.039,72.541,71.445c0,18.448-6.352,35.474-17.863,47.924
	c-13.022,14.074-32.139,21.51-55.304,21.51h-50.546V-54.083H-166.702 M-166.702-68.672c-47.241,0-65.759,0-65.759,0v170.059
	c0,0,24.644,0,65.133,0C-48.301,101.386-52.589-68.672-166.702-68.672L-166.702-68.672z"/>
<polygon points="-408.598,86.796 -408.818,86.796 -341.768,-37.872 -274.709,86.796 -275.103,86.796 -267.388,101.386 
	-250.299,101.386 -341.768,-68.672 -433.235,101.386 -416.461,101.386 "/>
<path d="M6.037-54.085c49.83,0,72.535,37.042,72.535,71.447c0,18.462-6.348,35.474-17.856,47.91
	C47.688,79.36,28.56,86.799,5.41,86.799h-50.546V-54.085H6.037 M6.037-68.672c-47.235,0-65.762,0-65.762,0v170.059
	c0,0,24.639,0,65.148,0C124.453,101.386,120.166-68.672,6.037-68.672L6.037-68.672z"/>
<rect x="318.778" y="-67.114" width="145.629" height="14.591"/>
<rect x="384.185" y="-66.144" width="14.587" height="161.396"/>
<rect x="117.073" y="-16.481" width="14.591" height="66.972"/>
<path d="M295.872,61.353c-7.252,9.302-16.471,16.925-27.525,21.839c-9.417,4.204-19.373,6.341-29.604,6.341
	c-28.804,0-54.969-16.997-66.671-43.307c-7.91-17.826-8.436-37.625-1.447-55.821c6.988-18.175,20.644-32.565,38.459-40.471
	c9.431-4.205,19.373-6.328,29.576-6.328c26.84,0,51.228,14.861,63.906,38.124l13.108-6.338
	c-15.557-29.119-45.503-46.386-77.015-46.386c-11.883,0-23.966,2.435-35.516,7.577c-44.156,19.661-64.052,71.405-44.405,115.554
	c14.5,32.61,46.49,51.983,80.004,51.983c11.91,0,23.993-2.435,35.547-7.592c15.071-6.697,27.224-17.181,36.027-29.79L295.872,61.353
	z"/>
<polygon points="-341.768,-45.03 -381.295,22.352 -302.093,22.352 "/>
</svg>
