<?xml version="1.0" encoding="utf-8"?>
<!-- Generator: Adobe Illustrator 16.0.0, SVG Export Plug-In . SVG Version: 6.00 Build 0)  -->
<!DOCTYPE svg PUBLIC "-//W3C//DTD SVG 1.1//EN" "http://www.w3.org/Graphics/SVG/1.1/DTD/svg11.dtd">
<svg version="1.1" id="Layer_1" xmlns="http://www.w3.org/2000/svg" xmlns:xlink="http://www.w3.org/1999/xlink" x="0px" y="0px"
	 width="149.627px" height="103.129px" viewBox="-56.107 -39.03 149.627 103.129"
	 enable-background="new -56.107 -39.03 149.627 103.129" xml:space="preserve">
<path d="M37.698-34.916c14.052,0,20.455,10.444,20.455,20.146c0,5.202-1.791,10.003-5.037,13.514
	C49.444,2.713,44.054,4.81,37.521,4.81H23.269v-39.726H37.698 M37.698-39.03c-13.321,0-18.543,0-18.543,0V8.924
	c0,0,6.949,0,18.366,0C71.085,8.924,69.876-39.03,37.698-39.03L37.698-39.03z"/>
<polygon points="-30.512,4.81 -30.574,4.81 -11.667,-30.344 7.242,4.81 7.131,4.81 9.307,8.924 14.125,8.924 -11.667,-39.03 
	-37.459,8.924 -32.729,8.924 "/>
<path d="M-37.563,20.26c14.052,0,20.453,10.445,20.453,20.146c0,5.206-1.79,10.003-5.035,13.51c-3.674,3.973-9.067,6.07-15.595,6.07
	h-14.253V20.26H-37.563 M-37.563,16.146c-13.319,0-18.543,0-18.543,0v47.953c0,0,6.948,0,18.371,0
	C-4.173,64.099-5.382,16.146-37.563,16.146L-37.563,16.146z"/>
<rect x="51.083" y="15.873" width="41.064" height="4.114"/>
<rect x="69.526" y="16.146" width="4.113" height="45.511"/>
<rect x="-5.794" y="30.15" width="4.114" height="18.885"/>
<path d="M44.624,51.513c-2.045,2.623-4.645,4.772-7.762,6.158c-2.655,1.186-5.463,1.788-8.348,1.788
	c-8.122,0-15.5-4.793-18.8-12.212c-2.23-5.026-2.378-10.609-0.408-15.74c1.971-5.125,5.821-9.183,10.845-11.412
	c2.659-1.186,5.463-1.784,8.34-1.784c7.568,0,14.445,4.19,18.021,10.75l3.696-1.787c-4.387-8.211-12.831-13.08-21.717-13.08
	c-3.351,0-6.758,0.687-10.015,2.137C6.025,21.875,0.415,36.466,5.955,48.915c4.089,9.195,13.11,14.658,22.56,14.658
	c3.358,0,6.766-0.687,10.023-2.141c4.25-1.889,7.677-4.845,10.159-8.4L44.624,51.513z"/>
<polygon points="-11.667,-32.363 -22.813,-13.363 -0.479,-13.363 "/>
</svg>
