<?xml version="1.0" encoding="utf-8"?>
<!-- Generator: Adobe Illustrator 16.0.0, SVG Export Plug-In . SVG Version: 6.00 Build 0)  -->
<!DOCTYPE svg PUBLIC "-//W3C//DTD SVG 1.1//EN" "http://www.w3.org/Graphics/SVG/1.1/DTD/svg11.dtd">
<svg version="1.1" id="Layer_1" xmlns="http://www.w3.org/2000/svg" xmlns:xlink="http://www.w3.org/1999/xlink" x="0px" y="0px"
	 width="431.652px" height="150.326px" viewBox="0 0 431.652 150.326" enable-background="new 0 0 431.652 150.326"
	 xml:space="preserve">
<g>
	<path d="M290.427,58.983c0.652-0.913,1.301-1.83,1.996-2.709c0.211-0.266,0.432-0.522,0.656-0.775
		c0.104-0.115,0.211-0.225,0.324-0.33c-1.211,1.052-2.449,0.302-3.717-2.25c-0.221,1.406-1.047,2.844-1.619,4.125
		c-2.508,5.617-5.184,11.155-7.656,16.788c-1.309,2.979-11.982,24.835-1.955,23.876c3.182-0.304,3.211-5.307,0-5
		c-0.602,0.058,0.623,0.267,0.691,0.808c-0.105-0.844,0.07-1.7,0.24-2.521c0.584-2.819,1.643-5.556,2.676-8.233
		c2.459-6.372,5.414-12.552,8.285-18.747c1.426-3.079,4.707-7.784,4.188-11.357c-0.328-2.269-3.131-2.345-4.537-1.137
		c-1.551,1.331-2.713,3.292-3.889,4.938C284.234,59.09,288.572,61.583,290.427,58.983L290.427,58.983z"/>
	<g>
		<path d="M11.099,146.438H3.243l-1.692,3.767H0l6.445-14.1h1.471l6.445,14.1H12.79L11.099,146.438z M10.555,145.23l-3.384-7.574
			l-3.384,7.574H10.555z"/>
		<path d="M32.811,136.105h5.74c1.491,0,2.807,0.299,3.948,0.896s2.027,1.431,2.659,2.498c0.631,1.067,0.946,2.286,0.946,3.655
			c0,1.37-0.315,2.589-0.946,3.656c-0.632,1.067-1.518,1.9-2.659,2.497c-1.142,0.598-2.457,0.896-3.948,0.896h-5.74V136.105z
			 M38.471,148.916c1.235,0,2.316-0.245,3.243-0.735c0.926-0.49,1.645-1.168,2.155-2.034c0.51-0.866,0.765-1.863,0.765-2.991
			s-0.255-2.125-0.765-2.991c-0.511-0.866-1.229-1.544-2.155-2.034c-0.927-0.49-2.008-0.735-3.243-0.735h-4.169v11.521H38.471z"/>
		<path d="M65.562,136.105h5.74c1.491,0,2.807,0.299,3.948,0.896s2.027,1.431,2.659,2.498c0.631,1.067,0.946,2.286,0.946,3.655
			c0,1.37-0.315,2.589-0.946,3.656c-0.632,1.067-1.518,1.9-2.659,2.497c-1.142,0.598-2.457,0.896-3.948,0.896h-5.74V136.105z
			 M71.222,148.916c1.235,0,2.316-0.245,3.243-0.735c0.926-0.49,1.645-1.168,2.155-2.034c0.51-0.866,0.765-1.863,0.765-2.991
			s-0.255-2.125-0.765-2.991c-0.511-0.866-1.229-1.544-2.155-2.034c-0.927-0.49-2.008-0.735-3.243-0.735h-4.169v11.521H71.222z"/>
		<path d="M99.521,136.105h1.491v14.1h-1.491V136.105z"/>
		<path d="M124.063,149.399c-1.121-0.617-2.001-1.474-2.639-2.568c-0.638-1.094-0.956-2.319-0.956-3.676
			c0-1.355,0.318-2.581,0.956-3.676c0.638-1.094,1.521-1.95,2.648-2.568c1.128-0.617,2.391-0.926,3.787-0.926
			c1.047,0,2.015,0.174,2.9,0.523c0.887,0.35,1.638,0.859,2.256,1.53l-0.946,0.947c-1.102-1.114-2.491-1.672-4.17-1.672
			c-1.114,0-2.128,0.255-3.041,0.766c-0.913,0.51-1.629,1.208-2.146,2.095c-0.517,0.886-0.775,1.88-0.775,2.98
			c0,1.102,0.259,2.095,0.775,2.981c0.517,0.886,1.232,1.584,2.146,2.095c0.913,0.51,1.927,0.765,3.041,0.765
			c1.692,0,3.082-0.563,4.17-1.691l0.946,0.946c-0.618,0.672-1.373,1.186-2.266,1.541c-0.894,0.356-1.863,0.534-2.911,0.534
			C126.443,150.326,125.185,150.018,124.063,149.399z"/>
		<path d="M154.87,137.395h-4.954v-1.289h11.399v1.289h-4.954v12.811h-1.491V137.395z"/>
		<path d="M178.265,149.983c-0.209-0.215-0.313-0.477-0.313-0.785s0.104-0.567,0.313-0.775c0.208-0.208,0.46-0.313,0.755-0.313
			c0.296,0,0.551,0.104,0.766,0.313s0.322,0.467,0.322,0.775s-0.107,0.57-0.322,0.785s-0.47,0.322-0.766,0.322
			C178.725,150.306,178.473,150.198,178.265,149.983z"/>
		<path d="M201.509,149.399c-1.121-0.617-2.001-1.474-2.639-2.568c-0.638-1.094-0.956-2.319-0.956-3.676
			c0-1.355,0.318-2.581,0.956-3.676c0.638-1.094,1.521-1.95,2.648-2.568c1.128-0.617,2.391-0.926,3.787-0.926
			c1.047,0,2.015,0.174,2.9,0.523c0.887,0.35,1.638,0.859,2.256,1.53l-0.946,0.947c-1.102-1.114-2.491-1.672-4.17-1.672
			c-1.114,0-2.128,0.255-3.041,0.766c-0.913,0.51-1.629,1.208-2.146,2.095c-0.517,0.886-0.775,1.88-0.775,2.98
			c0,1.102,0.259,2.095,0.775,2.981c0.517,0.886,1.232,1.584,2.146,2.095c0.913,0.51,1.927,0.765,3.041,0.765
			c1.692,0,3.082-0.563,4.17-1.691l0.946,0.946c-0.618,0.672-1.373,1.186-2.266,1.541c-0.894,0.356-1.863,0.534-2.911,0.534
			C203.889,150.326,202.63,150.018,201.509,149.399z"/>
		<path d="M239.384,150.205l-3.223-4.532c-0.361,0.041-0.738,0.061-1.127,0.061h-3.787v4.472h-1.49v-14.1h5.277
			c1.799,0,3.209,0.431,4.229,1.289c1.021,0.859,1.531,2.042,1.531,3.545c0,1.102-0.279,2.031-0.836,2.79s-1.352,1.306-2.387,1.642
			l3.445,4.834H239.384z M238.197,143.538c0.738-0.617,1.107-1.483,1.107-2.599c0-1.141-0.369-2.017-1.107-2.628
			s-1.807-0.917-3.203-0.917h-3.746v7.07h3.746C236.39,144.465,237.458,144.156,238.197,143.538z"/>
		<path d="M270.404,148.916v1.289h-9.971v-14.1h9.668v1.289h-8.178v5.016h7.291v1.269h-7.291v5.237H270.404z"/>
		<path d="M298.865,146.438h-7.855l-1.693,3.767h-1.551l6.445-14.1h1.471l6.445,14.1h-1.57L298.865,146.438z M298.32,145.23
			l-3.383-7.574l-3.385,7.574H298.32z"/>
		<path d="M322.611,137.395h-4.953v-1.289h11.398v1.289h-4.953v12.811h-1.492V137.395z"/>
		<path d="M347.546,136.105h1.49v14.1h-1.49V136.105z"/>
		<path d="M381.304,136.105l-6.244,14.1h-1.471l-6.244-14.1h1.611l5.398,12.246l5.438-12.246H381.304z"/>
		<path d="M409.421,148.916v1.289h-9.971v-14.1h9.668v1.289h-8.176v5.016h7.291v1.269h-7.291v5.237H409.421z"/>
	</g>
	<path d="M196.876,59.365c-7.849,3.536-15.856,6.696-24.186,8.906c-3.915,1.039-13.411,3.876-16.14-0.713
		c-1.893-3.183,1.015-8.955,2.357-11.837c0.947-2.034,3.001-4.458,3.379-6.699c0.229-1.354-0.337-2.673-1.746-3.076
		c-3.041-0.869-7.59,4.902-9.68,6.554c-5.458,4.313-11.208,8.257-17.062,12.009c-10.361,6.639-21.297,12.38-32.55,17.349
		c-16.045,7.086-35.622,14.688-53.538,12.922c-4.725-0.466-8.139-2.209-8.744-7.137c-0.603-4.91,1.066-9.64,3.491-13.833
		c6.589-11.396,18.627-19.563,29.612-26.249c18.938-11.526,40.091-20.146,61.572-25.575c7.407-1.872,15.165-3.517,22.847-3.23
		c1.989,0.074,4.14,0.319,5.813,1.409c0.71,0.463,0.758,1.363,0.099,3.067c-1.165,3.012,3.671,4.303,4.821,1.329
		c7.441-19.233-38.057-6.651-43.66-4.979c-14.694,4.385-29.008,10.269-42.632,17.294c-12.656,6.526-25.173,14.33-35.155,24.595
		c-6.613,6.8-12.501,15.734-11.861,25.613c0.713,11.011,10.417,13.156,19.91,12.87c17.186-0.518,34.379-7.017,49.948-13.779
		c10.355-4.498,20.346-9.825,29.965-15.729c4.792-2.94,9.447-6.097,14.007-9.383c2.255-1.625,4.458-3.321,6.651-5.027
		c1.214-0.945,2.407-1.917,3.599-2.89c1.017-0.829,3.548-1.712,1.217-2.378c-0.582-1.025-1.164-2.05-1.746-3.076
		c-0.366,2.163-3.638,7.007-4.754,9.933c-1.588,4.166-2.709,9.711,0.255,13.538c3.624,4.68,10.497,3.879,15.64,3.091
		c10.67-1.634,21.023-6.17,30.793-10.572C202.336,62.359,199.791,58.052,196.876,59.365L196.876,59.365z"/>
	<path d="M213.428,91.416c-4.252-1.155-4.219-8.451-4.419-11.963c-0.425-7.458-0.079-14.876,0.666-22.302
		c0.76-7.583,2.062-15.043,3.571-22.505c1.572-7.776,3.267-15.615,5.883-23.117c0.447-1.283,0.967-2.526,1.6-3.729
		c1.34-2.548-0.672-0.333-0.646-0.109c0.807,6.965-0.734,14.417-1.979,21.229c-2.718,14.88-7.4,29.984-14.533,43.354
		c-3.025,5.67-6.841,10.871-11.685,15.106c-2.592,2.266-12.1,8.685-15.324,4.326c-2.633-3.559,3.097-11.706,4.871-14.53
		c3.542-5.64,7.899-10.97,12.926-15.352c1.007-0.878,2.19-1.863,3.458-2.338c-0.205,0.077-0.527-1.771-0.754,0.528
		c-0.316,3.208,4.687,3.178,5,0c0.41-4.151-2.567-6.721-6.512-4.97c-4.819,2.139-8.729,6.909-12.021,10.853
		c-4.675,5.6-18.422,22.408-10.046,29.759c7.254,6.366,18.554-1.514,23.94-6.55c9.371-8.762,14.514-21.681,18.69-33.517
		c4.888-13.853,8.587-28.842,9.042-43.583c0.094-2.979,0.512-7.979-2.539-9.767c-1.794-1.051-3.812-0.163-5.031,1.304
		c-3.748,4.512-4.959,11.708-6.348,17.218c-1.795,7.122-3.242,14.341-4.534,21.569c-1.981,11.08-3.114,22.427-2.848,33.684
		c0.16,6.773,0.124,18.014,8.246,20.223C215.215,97.085,216.537,92.262,213.428,91.416L213.428,91.416z"/>
	<path d="M265.732,91.416c-5.676-1.542-4.84-13.597-3.971-18.397c1.264-6.964,3.295-13.813,5.316-20.586
		c4.422-14.812,9.066-30.345,16.387-44.03c0.586-1.096,1.615-3.042,2.365-3.508c-2.172,1.353-2.555-3.353-2.996-1.464
		c-0.24,1.025-0.572,2.032-0.893,3.034c-2.166,6.783-4.813,13.427-7.438,20.042c-3.332,8.396-6.84,16.725-10.619,24.93
		c-2.404,5.217-4.756,11.167-8.486,15.613c-6.787,8.087-12.631,17.824-21.549,23.804c-8.563,5.743-3.105-6.845-1.449-9.812
		c4.09-7.32,9.639-14.04,15.836-19.669c2.08-1.888,4.512-3.983,7.258-4.792c1.621-0.478,1.084,2.672,0.871,4.207
		c-0.439,3.152,4.379,4.511,4.822,1.329c0.523-3.766,0.848-9.101-3.695-10.46c-3.98-1.191-8.438,2.563-11.232,4.838
		c-9.059,7.372-18.076,18.534-21.664,29.775c-1.156,3.626-1.193,8.188,2.529,10.294c5.898,3.335,12.945-3.964,16.602-7.653
		c9.904-9.998,18.113-21.363,24.064-34.065c6.898-14.722,13.146-29.924,18.396-45.313c0.912-2.671,3.508-7.828-0.287-9.329
		c-3.449-1.364-6.193,4.588-7.316,6.746c-7.189,13.815-11.852,29.301-16.326,44.157c-3.684,12.229-8.34,25.433-4.443,38.191
		c1.016,3.325,3.178,6.017,6.588,6.944C267.519,97.085,268.839,92.262,265.732,91.416L265.732,91.416z"/>
	<path d="M372.671,14.96c-9.754,15.575-19.023,31.682-26.619,48.423c-3.08,6.786-8.344,16.575-6.383,24.328
		c2.338,9.246,14.975,1.217,19.098-1.525c2.672-1.775,0.17-6.107-2.523-4.316c-3.021,2.008-6.865,4.93-10.656,5.15
		c-1.375,0.08-1.355-1.01-1.217-3.159c0.559-8.592,5.688-17.584,9.398-25.131c6.951-14.14,14.857-27.892,23.219-41.246
		C378.705,14.742,374.378,12.235,372.671,14.96L372.671,14.96z"/>
	<path d="M341.328,44.862c0.176-3.2,9.34-4.766,11.492-5.271c8.514-1.999,17.33-2.755,26.035-3.358
		c16.615-1.151,33.85-1.695,50.416,0.409c3.193,0.405,3.154-4.6,0-5c-18.424-2.339-37.658-1.54-56.107,0.029
		c-8.805,0.749-17.816,1.748-26.299,4.333c-4.289,1.307-10.248,3.61-10.537,8.858C336.152,48.085,341.152,48.068,341.328,44.862
		L341.328,44.862z"/>
	<path d="M330.962,56.834c0.92-2.879,1.064-7.054-2.908-7.388c-3.279-0.276-6.732,2.7-9.119,4.552
		c-9.328,7.235-17.637,16.284-24.547,25.829c-3.047,4.209-11.117,16.924-0.738,17.869c3.041,0.276,6.439-1.091,9.225-2.018
		c5.846-1.943,11.361-4.868,16.617-8.042c9.873-5.964,18.891-13.529,27.021-21.68c2.535-2.542,4.961-5.204,7.188-8.02
		c1.979-2.499-1.535-6.063-3.535-3.535c-11.125,14.058-26.34,26.212-42.469,33.949c-3.957,1.898-8.258,3.479-12.584,4.284
		c-1.121,0.208-1.904-0.376-1.637,0.298c-0.686-1.728,2.002-5.695,3.084-7.421c5.371-8.566,12.67-16.178,20.066-23.012
		c2.9-2.681,5.939-5.346,9.379-7.32c0.762-0.436,2.111-0.673,1.566-0.786c-0.666-0.138-0.973-1.189-0.969-0.807
		c0.008,0.63-0.27,1.312-0.463,1.917C325.156,58.585,329.984,59.894,330.962,56.834L330.962,56.834z"/>
	<path d="M294.753,36.416c0.818,2.109,3.348,4.957,3.723,7.182c0.279,1.648,0.193,1.896,1.68,1.486
		c1.729-0.475,2.039-4.347,1.762-5.99c-0.377-2.226-0.441-2.195-1.258-4.307c-0.602-1.555-2.035-2.614-3.768-2.139
		C295.406,33.059,294.152,34.856,294.753,36.416L294.753,36.416z"/>
</g>
</svg>
