<?xml version="1.0" encoding="utf-8"?>
<!-- Generator: Adobe Illustrator 16.0.0, SVG Export Plug-In . SVG Version: 6.00 Build 0)  -->
<!DOCTYPE svg PUBLIC "-//W3C//DTD SVG 1.1//EN" "http://www.w3.org/Graphics/SVG/1.1/DTD/svg11.dtd">
<svg version="1.1" id="Layer_1" xmlns="http://www.w3.org/2000/svg" xmlns:xlink="http://www.w3.org/1999/xlink" x="0px" y="0px"
	 width="808.928px" height="272.617px" viewBox="0 0 808.928 272.617" enable-background="new 0 0 808.928 272.617"
	 xml:space="preserve">
<path fill="#2BB573" d="M609.154,179.999c1.66,3.414-0.076,7.68-3.865,9.52c-3.799,1.846-8.213,0.571-9.871-2.844
	c-1.66-3.415,0.068-7.676,3.867-9.52C603.072,175.313,607.495,176.583,609.154,179.999z"/>
<g>
	<path fill="#797A7D" d="M21.928,264.936H6.407l-3.344,7.44H0l12.733-27.856h2.906l12.735,27.856H25.27L21.928,264.936z
		 M20.853,262.548l-6.686-14.966l-6.687,14.966H20.853z"/>
	<path fill="#797A7D" d="M64.827,244.52h11.342c2.945,0,5.545,0.59,7.801,1.77c2.256,1.181,4.005,2.826,5.254,4.937
		c1.247,2.108,1.87,4.517,1.87,7.222c0,2.707-0.623,5.115-1.87,7.226c-1.249,2.108-2.999,3.754-5.254,4.935
		c-2.255,1.18-4.854,1.771-7.801,1.771H64.827V244.52z M76.01,269.831c2.439,0,4.577-0.484,6.408-1.452
		c1.829-0.97,3.249-2.31,4.258-4.021c1.007-1.711,1.511-3.682,1.511-5.91c0-2.228-0.503-4.197-1.511-5.91
		c-1.009-1.711-2.429-3.049-4.258-4.018c-1.831-0.97-3.968-1.453-6.408-1.453h-8.237v22.764H76.01z"/>
	<path fill="#797A7D" d="M129.536,244.52h11.341c2.945,0,5.545,0.59,7.801,1.77c2.256,1.182,4.006,2.826,5.254,4.937
		c1.247,2.108,1.87,4.517,1.87,7.222c0,2.707-0.623,5.115-1.87,7.226c-1.248,2.108-2.998,3.754-5.254,4.935
		c-2.255,1.18-4.854,1.771-7.801,1.771h-11.341V244.52z M140.719,269.831c2.441,0,4.577-0.484,6.408-1.452
		c1.829-0.97,3.25-2.31,4.258-4.021c1.007-1.711,1.511-3.682,1.511-5.91c0-2.228-0.503-4.197-1.511-5.91
		c-1.009-1.711-2.429-3.049-4.258-4.018c-1.831-0.97-3.967-1.453-6.408-1.453h-8.237v22.764H140.719z"/>
	<path fill="#797A7D" d="M196.631,244.52h2.946v27.856h-2.946V244.52z"/>
	<path fill="#797A7D" d="M245.123,270.786c-2.216-1.219-3.954-2.912-5.213-5.074c-1.261-2.161-1.89-4.582-1.89-7.264
		c0-2.678,0.629-5.1,1.89-7.262c1.26-2.162,3.004-3.854,5.231-5.074c2.229-1.221,4.724-1.83,7.483-1.83
		c2.067,0,3.979,0.345,5.729,1.035c1.752,0.689,3.236,1.697,4.457,3.022l-1.87,1.872c-2.177-2.202-4.922-3.305-8.238-3.305
		c-2.202,0-4.205,0.504-6.009,1.514c-1.804,1.007-3.219,2.387-4.238,4.139c-1.021,1.75-1.532,3.715-1.532,5.889
		c0,2.178,0.512,4.14,1.532,5.892c1.021,1.75,2.435,3.13,4.238,4.14c1.805,1.008,3.808,1.51,6.009,1.51
		c3.344,0,6.089-1.112,8.238-3.342l1.87,1.87c-1.221,1.327-2.713,2.343-4.477,3.046c-1.766,0.703-3.682,1.055-5.751,1.055
		C249.825,272.616,247.337,272.006,245.123,270.786z"/>
	<path fill="#797A7D" d="M305.989,247.067h-9.787v-2.547h22.521v2.547h-9.788v25.311h-2.946V247.067L305.989,247.067z"/>
	<path fill="#797A7D" d="M352.212,271.94c-0.413-0.426-0.617-0.941-0.617-1.553c0-0.609,0.205-1.121,0.617-1.531
		c0.411-0.41,0.909-0.617,1.492-0.617c0.584,0,1.088,0.207,1.513,0.617c0.424,0.41,0.637,0.922,0.637,1.531
		s-0.212,1.127-0.637,1.553c-0.425,0.424-0.928,0.637-1.513,0.637C353.121,272.577,352.623,272.364,352.212,271.94z"/>
	<path fill="#797A7D" d="M398.136,270.786c-2.215-1.219-3.953-2.912-5.213-5.074c-1.26-2.161-1.889-4.582-1.889-7.264
		c0-2.678,0.629-5.1,1.889-7.262s3.004-3.854,5.232-5.074c2.229-1.221,4.724-1.83,7.482-1.83c2.068,0,3.98,0.345,5.73,1.035
		c1.752,0.689,3.236,1.697,4.457,3.022l-1.869,1.872c-2.178-2.202-4.922-3.305-8.24-3.305c-2.202,0-4.204,0.504-6.007,1.514
		c-1.805,1.007-3.219,2.387-4.239,4.139c-1.021,1.75-1.532,3.715-1.532,5.889c0,2.178,0.511,4.14,1.532,5.892
		c1.021,1.75,2.435,3.13,4.239,4.14c1.804,1.008,3.807,1.51,6.007,1.51c3.344,0,6.09-1.112,8.24-3.342l1.869,1.87
		c-1.221,1.327-2.713,2.343-4.477,3.046c-1.766,0.703-3.682,1.055-5.752,1.055C402.839,272.616,400.352,272.006,398.136,270.786z"/>
	<path fill="#797A7D" d="M472.972,272.376l-6.367-8.954c-0.717,0.081-1.459,0.119-2.229,0.119h-7.48v8.835h-2.945V244.52h10.426
		c3.557,0,6.342,0.85,8.355,2.547c2.018,1.697,3.025,4.033,3.025,7.004c0,2.176-0.551,4.014-1.65,5.512
		c-1.102,1.5-2.672,2.58-4.717,3.244l6.807,9.551L472.972,272.376L472.972,272.376z M470.624,259.206
		c1.457-1.221,2.188-2.932,2.188-5.135c0-2.254-0.73-3.984-2.188-5.192c-1.459-1.208-3.568-1.812-6.328-1.812h-7.4v13.969h7.4
		C467.056,261.036,469.165,260.425,470.624,259.206z"/>
	<path fill="#797A7D" d="M534.257,269.831v2.547h-19.701V244.52h19.104v2.547h-16.154v9.91h14.404v2.506h-14.404v10.348H534.257
		L534.257,269.831z"/>
	<path fill="#797A7D" d="M590.488,264.936h-15.52l-3.342,7.44h-3.064l12.734-27.856h2.906l12.732,27.856h-3.105L590.488,264.936z
		 M589.417,262.548l-6.689-14.966l-6.684,14.966H589.417z"/>
	<path fill="#797A7D" d="M637.409,247.067h-9.789v-2.547h22.523v2.547h-9.791v25.311h-2.943V247.067L637.409,247.067z"/>
	<path fill="#797A7D" d="M686.673,244.52h2.949v27.856h-2.949V244.52z"/>
	<path fill="#797A7D" d="M753.37,244.52l-12.338,27.856h-2.9l-12.336-27.856h3.184l10.662,24.194l10.746-24.194H753.37z"/>
	<path fill="#797A7D" d="M808.929,269.831v2.547h-19.701V244.52h19.102v2.547h-16.156v9.91h14.404v2.506h-14.404v10.348H808.929
		L808.929,269.831z"/>
</g>
<path fill="#2BB573" d="M546.361,113.961c-4.256,8.339-21.391,11.113-29.434,13.21c-12.438,3.243-25.67,5.913-38.578,5.706
	c-24.678-0.397-0.256-31.07,1.443-41.124c0.453-2.674-0.666-5.281-3.449-6.077c-6.008-1.716-14.996,9.686-19.127,12.95
	c-10.783,8.52-22.145,16.314-33.711,23.727c-20.471,13.116-42.079,24.46-64.311,34.276c-31.701,14.001-70.38,29.02-105.777,25.531
	c-9.336-0.922-16.081-4.364-17.277-14.102c-1.191-9.701,2.107-19.045,6.898-27.332c13.019-22.517,36.803-38.651,58.507-51.861
	c26.541-16.154,55.195-28.93,84.46-39.262c23.42-8.27,48.239-15.824,73.153-17.518c6.207-0.421,14.076-0.93,19.711,2.063
	c1.369,0.727,2.014,1.659,2.064,2.065c0.156,1.237,0.029,1.563-0.25,2.652c-0.674,2.64,1.818-1.321-0.646,0.911
	c-25.992,23.528-60.309,30.497-93.859,35.36c-30.188,4.375-60.858,7.339-91.389,6.524c-16.695-0.447-55.749-0.773-59.051-23.428
	c-0.916-6.284-10.434-3.603-9.525,2.626c3.844,26.381,41.898,29.229,62.289,30.417c35.232,2.053,70.982-2.221,105.782-7.42
	c33.581-5.018,65.987-13.84,92.192-36.608c10.828-9.407,0.832-22.008-10.096-24.252c-19.451-3.994-41.711,2.096-60.412,7.001
	c-28.726,7.534-56.676,18.352-83.482,31.078c-26.368,12.518-52.115,27.495-74.095,46.847
	c-15.889,13.989-31.274,32.532-32.333,54.608c-2.01,41.949,54.74,29.623,79.524,23.354c29.238-7.398,57.425-19.271,84.262-32.902
	c15.934-8.093,31.338-17.206,46.252-27.044c7.611-5.021,15.012-10.347,22.291-15.836c2.764-2.085,5.484-4.229,8.201-6.376
	c1.586-1.262,3.16-2.537,4.725-3.823c2.008-1.638,7.012-3.383,2.404-4.699c-1.15-2.026-2.301-4.051-3.451-6.077
	c-0.191,1.143-3.748,6.945-5.01,9.484c-2.869,5.774-5.314,11.82-6.707,18.125c-2.824,12.778,2.68,23.621,16.127,25.682
	c14.373,2.203,31.051-2.279,44.877-5.72c10.818-2.69,29.664-6.633,35.336-17.75C557.781,113.286,549.259,108.286,546.361,113.961
	L546.361,113.961z"/>
<path fill="#2BB573" d="M577.872,177.097c-8.402-2.282-8.338-16.698-8.732-23.637c-0.84-14.733-0.154-29.393,1.316-44.063
	c1.5-14.983,4.072-29.721,7.053-44.464c3.105-15.364,6.457-30.853,11.625-45.673c0.885-2.535,1.908-4.992,3.158-7.367
	c2.648-5.034-1.324-0.659-1.275-0.216c1.594,13.762-1.451,28.485-3.91,41.945c-5.373,29.399-14.623,59.241-28.717,85.658
	c-5.975,11.203-13.514,21.479-23.086,29.848c-5.121,4.477-23.904,17.158-30.275,8.548c-5.201-7.03,6.119-23.129,9.623-28.708
	c6.998-11.143,15.607-21.674,25.539-30.333c1.99-1.735,4.326-3.681,6.834-4.619c-0.404,0.152-1.045-3.5-1.492,1.043
	c-0.625,6.339,9.26,6.279,9.879,0c0.809-8.201-5.072-13.278-12.865-9.819c-9.523,4.226-17.248,13.649-23.752,21.441
	c-9.236,11.065-36.398,44.274-19.85,58.797c14.332,12.578,36.658-2.99,47.299-12.939c18.518-17.312,28.68-42.838,36.932-66.224
	c9.656-27.371,16.965-56.985,17.865-86.11c0.182-5.887,1.01-15.766-5.018-19.297c-3.545-2.077-7.533-0.322-9.941,2.577
	c-7.404,8.915-9.797,23.133-12.543,34.019c-3.549,14.071-6.404,28.334-8.959,42.616c-3.914,21.892-6.152,44.311-5.627,66.552
	c0.314,13.383,0.246,35.591,16.291,39.956C581.402,188.298,584.011,178.768,577.872,177.097L577.872,177.097z"/>
</svg>
