<?xml version="1.0" encoding="utf-8"?>
<!-- Generator: Adobe Illustrator 16.0.0, SVG Export Plug-In . SVG Version: 6.00 Build 0)  -->
<!DOCTYPE svg PUBLIC "-//W3C//DTD SVG 1.1//EN" "http://www.w3.org/Graphics/SVG/1.1/DTD/svg11.dtd">
<svg version="1.1" id="Layer_1" xmlns="http://www.w3.org/2000/svg" xmlns:xlink="http://www.w3.org/1999/xlink" x="0px" y="0px"
	 width="417.787px" height="25.5px" viewBox="0 0 417.787 25.5" enable-background="new 0 0 417.787 25.5" xml:space="preserve">
<rect width="64.25" height="25.5"/>
<path fill="#FFFFFF" d="M20.652,16.133h-7.855l-1.692,3.767H9.554l6.445-14.1h1.471l6.445,14.1h-1.571L20.652,16.133z
	 M20.108,14.925l-3.384-7.574l-3.384,7.574H20.108z"/>
<path fill="#FFFFFF" d="M42.364,5.8h5.74c1.491,0,2.807,0.299,3.948,0.896s2.027,1.431,2.659,2.498
	c0.631,1.067,0.946,2.286,0.946,3.655c0,1.37-0.315,2.589-0.946,3.656c-0.632,1.067-1.518,1.9-2.659,2.497
	c-1.142,0.598-2.457,0.896-3.948,0.896h-5.74V5.8z M48.024,18.61c1.235,0,2.316-0.245,3.243-0.735
	c0.926-0.49,1.645-1.168,2.155-2.034c0.51-0.866,0.765-1.863,0.765-2.991s-0.255-2.125-0.765-2.991
	c-0.511-0.866-1.229-1.544-2.155-2.034c-0.927-0.49-2.008-0.735-3.243-0.735h-4.169V18.61H48.024z"/>
<path d="M75.115,5.8h5.74c1.491,0,2.807,0.299,3.948,0.896s2.027,1.431,2.659,2.498c0.631,1.067,0.946,2.286,0.946,3.655
	c0,1.37-0.315,2.589-0.946,3.656c-0.632,1.067-1.518,1.9-2.659,2.497c-1.142,0.598-2.457,0.896-3.948,0.896h-5.74V5.8z
	 M80.775,18.61c1.235,0,2.316-0.245,3.243-0.735c0.926-0.49,1.645-1.168,2.155-2.034c0.51-0.866,0.765-1.863,0.765-2.991
	s-0.255-2.125-0.765-2.991c-0.511-0.866-1.229-1.544-2.155-2.034c-0.927-0.49-2.008-0.735-3.243-0.735h-4.169V18.61H80.775z"/>
<path d="M109.074,5.8h1.491v14.1h-1.491V5.8z"/>
<path d="M133.617,19.094c-1.121-0.617-2.001-1.474-2.639-2.568c-0.638-1.094-0.956-2.319-0.956-3.676
	c0-1.355,0.318-2.581,0.956-3.676c0.638-1.094,1.521-1.95,2.648-2.568c1.128-0.617,2.391-0.926,3.787-0.926
	c1.047,0,2.015,0.174,2.9,0.523c0.887,0.35,1.638,0.859,2.256,1.53l-0.946,0.947c-1.102-1.114-2.491-1.672-4.17-1.672
	c-1.114,0-2.128,0.255-3.041,0.766c-0.913,0.51-1.629,1.208-2.146,2.095c-0.517,0.886-0.775,1.88-0.775,2.98
	c0,1.102,0.259,2.095,0.775,2.981c0.517,0.886,1.232,1.584,2.146,2.095c0.913,0.51,1.927,0.765,3.041,0.765
	c1.692,0,3.082-0.563,4.17-1.691l0.946,0.946c-0.618,0.672-1.373,1.186-2.266,1.541c-0.894,0.356-1.863,0.534-2.911,0.534
	C135.997,20.021,134.738,19.712,133.617,19.094z"/>
<path d="M164.424,7.089h-4.954V5.8h11.399v1.289h-4.954v12.811h-1.491V7.089z"/>
<path d="M187.818,19.678c-0.209-0.215-0.313-0.477-0.313-0.785s0.104-0.567,0.313-0.775c0.208-0.208,0.46-0.313,0.755-0.313
	c0.296,0,0.551,0.104,0.766,0.313s0.322,0.467,0.322,0.775s-0.107,0.57-0.322,0.785S188.869,20,188.573,20
	C188.278,20,188.026,19.893,187.818,19.678z"/>
<path d="M211.063,19.094c-1.121-0.617-2.001-1.474-2.639-2.568c-0.638-1.094-0.956-2.319-0.956-3.676
	c0-1.355,0.318-2.581,0.956-3.676c0.638-1.094,1.521-1.95,2.648-2.568c1.128-0.617,2.391-0.926,3.787-0.926
	c1.047,0,2.015,0.174,2.9,0.523c0.887,0.35,1.638,0.859,2.256,1.53l-0.946,0.947c-1.102-1.114-2.491-1.672-4.17-1.672
	c-1.114,0-2.128,0.255-3.041,0.766c-0.913,0.51-1.629,1.208-2.146,2.095c-0.517,0.886-0.775,1.88-0.775,2.98
	c0,1.102,0.259,2.095,0.775,2.981c0.517,0.886,1.232,1.584,2.146,2.095c0.913,0.51,1.927,0.765,3.041,0.765
	c1.692,0,3.082-0.563,4.17-1.691l0.946,0.946c-0.618,0.672-1.373,1.186-2.266,1.541c-0.894,0.356-1.863,0.534-2.911,0.534
	C213.442,20.021,212.184,19.712,211.063,19.094z"/>
<path d="M248.938,19.899l-3.223-4.532c-0.362,0.041-0.738,0.061-1.128,0.061h-3.786v4.472h-1.491V5.8h5.277
	c1.8,0,3.209,0.431,4.229,1.289c1.021,0.859,1.531,2.042,1.531,3.545c0,1.102-0.279,2.031-0.836,2.79
	c-0.558,0.759-1.353,1.306-2.387,1.642l3.444,4.834H248.938z M247.75,13.232c0.738-0.617,1.108-1.483,1.108-2.599
	c0-1.141-0.37-2.017-1.108-2.628s-1.806-0.917-3.202-0.917h-3.746v7.07h3.746C245.944,14.159,247.012,13.851,247.75,13.232z"/>
<path d="M279.957,18.61v1.289h-9.971V5.8h9.668v1.289h-8.177v5.016h7.291v1.269h-7.291v5.237H279.957z"/>
<path d="M308.418,16.133h-7.855l-1.692,3.767h-1.551l6.445-14.1h1.471l6.445,14.1h-1.571L308.418,16.133z M307.874,14.925
	l-3.384-7.574l-3.384,7.574H307.874z"/>
<path d="M332.165,7.089h-4.954V5.8h11.399v1.289h-4.954v12.811h-1.491V7.089z"/>
<path d="M357.1,5.8h1.491v14.1H357.1V5.8z"/>
<path d="M390.857,5.8l-6.244,14.1h-1.47l-6.244-14.1h1.611l5.397,12.246L389.347,5.8H390.857z"/>
<path d="M418.976,18.61v1.289h-9.971V5.8h9.668v1.289h-8.177v5.016h7.291v1.269h-7.291v5.237H418.976z"/>
</svg>
