<?xml version="1.0" encoding="utf-8"?>
<!-- Generator: Adobe Illustrator 16.0.0, SVG Export Plug-In . SVG Version: 6.00 Build 0)  -->
<!DOCTYPE svg PUBLIC "-//W3C//DTD SVG 1.1//EN" "http://www.w3.org/Graphics/SVG/1.1/DTD/svg11.dtd">
<svg version="1.1" id="Layer_1" xmlns="http://www.w3.org/2000/svg" xmlns:xlink="http://www.w3.org/1999/xlink" x="0px" y="0px"
	 width="211.509px" height="154.217px" viewBox="0 0 211.509 154.217" enable-background="new 0 0 211.509 154.217"
	 xml:space="preserve">
<g>
	<path d="M36.255,126.159h-7.855l-1.692,3.767h-1.551l6.445-14.1h1.471l6.445,14.1h-1.571L36.255,126.159z M35.711,124.951
		l-3.384-7.574l-3.384,7.574H35.711z"/>
	<path d="M57.967,115.826h5.74c1.491,0,2.807,0.299,3.948,0.896s2.027,1.431,2.659,2.498c0.631,1.067,0.946,2.286,0.946,3.655
		c0,1.37-0.315,2.589-0.946,3.656c-0.632,1.067-1.518,1.9-2.659,2.497c-1.142,0.598-2.457,0.896-3.948,0.896h-5.74V115.826z
		 M63.627,128.637c1.235,0,2.316-0.245,3.243-0.735c0.926-0.49,1.645-1.168,2.155-2.034c0.51-0.866,0.765-1.863,0.765-2.991
		s-0.255-2.125-0.765-2.991c-0.511-0.866-1.229-1.544-2.155-2.034c-0.927-0.49-2.008-0.735-3.243-0.735h-4.169v11.521H63.627z"/>
	<path d="M90.718,115.826h5.74c1.491,0,2.807,0.299,3.948,0.896s2.027,1.431,2.659,2.498c0.631,1.067,0.946,2.286,0.946,3.655
		c0,1.37-0.315,2.589-0.946,3.656c-0.632,1.067-1.518,1.9-2.659,2.497c-1.142,0.598-2.457,0.896-3.948,0.896h-5.74V115.826z
		 M96.378,128.637c1.235,0,2.316-0.245,3.243-0.735c0.926-0.49,1.645-1.168,2.155-2.034c0.51-0.866,0.765-1.863,0.765-2.991
		s-0.255-2.125-0.765-2.991c-0.511-0.866-1.229-1.544-2.155-2.034c-0.927-0.49-2.008-0.735-3.243-0.735h-4.169v11.521H96.378z"/>
	<path d="M124.677,115.826h1.491v14.1h-1.491V115.826z"/>
	<path d="M149.22,129.12c-1.121-0.617-2.001-1.474-2.639-2.568c-0.638-1.094-0.956-2.319-0.956-3.676
		c0-1.355,0.318-2.581,0.956-3.676c0.638-1.094,1.521-1.95,2.648-2.568c1.128-0.617,2.391-0.926,3.787-0.926
		c1.047,0,2.015,0.174,2.9,0.523c0.887,0.35,1.638,0.859,2.256,1.53l-0.946,0.947c-1.102-1.114-2.491-1.672-4.17-1.672
		c-1.114,0-2.128,0.255-3.041,0.766c-0.913,0.51-1.629,1.208-2.146,2.095c-0.517,0.886-0.775,1.88-0.775,2.98
		c0,1.102,0.259,2.095,0.775,2.981c0.517,0.886,1.232,1.584,2.146,2.095c0.913,0.51,1.927,0.765,3.041,0.765
		c1.692,0,3.082-0.563,4.17-1.691l0.946,0.946c-0.618,0.672-1.373,1.186-2.266,1.541c-0.894,0.356-1.863,0.534-2.911,0.534
		C151.6,130.047,150.341,129.738,149.22,129.12z"/>
	<path d="M180.026,117.115h-4.954v-1.289h11.399v1.289h-4.954v12.811h-1.491V117.115z"/>
	<path d="M3.595,153.29c-1.121-0.617-2.001-1.474-2.639-2.568C0.318,149.628,0,148.402,0,147.046c0-1.355,0.318-2.581,0.956-3.676
		c0.638-1.094,1.521-1.95,2.648-2.568c1.128-0.617,2.391-0.926,3.787-0.926c1.047,0,2.015,0.174,2.9,0.523
		c0.887,0.35,1.638,0.859,2.256,1.53l-0.946,0.947c-1.102-1.114-2.491-1.672-4.17-1.672c-1.114,0-2.128,0.255-3.041,0.766
		c-0.913,0.51-1.629,1.208-2.146,2.095c-0.517,0.886-0.775,1.88-0.775,2.98c0,1.102,0.259,2.095,0.775,2.981
		c0.517,0.886,1.232,1.584,2.146,2.095c0.913,0.51,1.927,0.765,3.041,0.765c1.692,0,3.082-0.563,4.17-1.691l0.946,0.946
		c-0.618,0.672-1.373,1.186-2.266,1.541c-0.894,0.356-1.863,0.534-2.911,0.534C5.975,154.217,4.716,153.908,3.595,153.29z"/>
	<path d="M41.472,154.096l-3.223-4.532c-0.362,0.041-0.738,0.061-1.128,0.061h-3.786v4.472h-1.491v-14.1h5.277
		c1.8,0,3.209,0.431,4.229,1.289c1.021,0.859,1.531,2.042,1.531,3.545c0,1.102-0.279,2.031-0.836,2.79
		c-0.558,0.759-1.353,1.306-2.387,1.642l3.444,4.834H41.472z M40.283,147.429c0.738-0.617,1.108-1.483,1.108-2.599
		c0-1.141-0.37-2.017-1.108-2.628s-1.806-0.917-3.202-0.917h-3.746v7.07h3.746C38.478,148.355,39.545,148.047,40.283,147.429z"/>
	<path d="M72.49,152.807v1.289H62.52v-14.1h9.668v1.289h-8.177v5.016h7.291v1.269h-7.291v5.237H72.49z"/>
	<path d="M100.95,150.329h-7.855l-1.692,3.767h-1.551l6.445-14.1h1.471l6.445,14.1h-1.571L100.95,150.329z M100.406,149.121
		l-3.384-7.574l-3.384,7.574H100.406z"/>
	<path d="M124.697,141.285h-4.954v-1.289h11.399v1.289h-4.954v12.811h-1.491V141.285z"/>
	<path d="M149.633,139.996h1.491v14.1h-1.491V139.996z"/>
	<path d="M183.39,139.996l-6.244,14.1h-1.47l-6.244-14.1h1.611l5.397,12.246l5.438-12.246H183.39z"/>
	<path d="M211.509,152.807v1.289h-9.971v-14.1h9.668v1.289h-8.177v5.016h7.291v1.269h-7.291v5.237H211.509z"/>
</g>
<path fill="#2BB673" d="M116.103,73.885c-4.399,1.75-9.075,3.643-13.856,3.888c-2.551,0.131,0.573-4.089,1.037-5.033
	c0.75-1.526-0.119-3.968-2.159-3.762c-2.546,0.257-5.352,3.294-7.477,4.675c-3.361,2.185-6.915,4.064-10.517,5.816
	c-6.488,3.155-13.425,5.563-20.508,6.95c-2.037,0.398-9.374,2.079-9.495-1.339c-0.112-3.167,3.232-5.938,5.4-7.742
	c7.366-6.131,17.264-9.743,26.318-12.469c3.927-1.182,7.982-2.194,12.071-2.595c1.22-0.12,2.545-0.219,3.758-0.005
	c1.175,0.207,0.315-1.1,0.057-0.447c-1.19,3,3.647,4.289,4.821,1.328c3.41-8.594-13.066-5.331-16.293-4.614
	c-11.653,2.588-24.249,7.297-33.666,14.788c-3.4,2.704-6.854,6.214-7.385,10.738c-0.52,4.422,2.069,7.221,6.355,7.766
	c7.085,0.9,14.699-1.595,21.275-3.924c4.277-1.516,8.431-3.396,12.479-5.438c2.244-1.132,4.418-2.395,6.569-3.693
	c1.295-0.782,2.551-1.628,3.805-2.474c0.057-0.039,3.055-2.386,2.431-2.322c-0.72-1.254-1.439-2.508-2.159-3.762
	c-1.383,2.815-4.951,7.866-1.673,10.783c5.114,4.552,14.955-0.23,20.139-2.294C120.391,77.528,119.102,72.691,116.103,73.885
	L116.103,73.885z"/>
<path fill="#2BB673" d="M153.68,89.635c-4.254-1.155-4.221-8.451-4.421-11.963c-0.425-7.458-0.078-14.877,0.666-22.302
	c0.761-7.584,2.062-15.043,3.57-22.505c1.572-7.776,3.267-15.615,5.884-23.117c0.447-1.283,0.966-2.526,1.599-3.729
	c1.341-2.547-0.671-0.334-0.645-0.109c0.808,6.965-0.736,14.417-1.98,21.229c-2.718,14.881-7.399,29.983-14.533,43.354
	c-3.024,5.67-6.841,10.87-11.685,15.105c-2.592,2.267-12.099,8.686-15.324,4.327c-2.633-3.559,3.097-11.706,4.871-14.53
	c3.542-5.64,7.899-10.97,12.926-15.353c1.008-0.878,2.19-1.862,3.458-2.337c-0.204,0.076-0.528-1.772-0.755,0.527
	c-0.316,3.209,4.687,3.178,5,0c0.41-4.15-2.566-6.721-6.512-4.97c-4.818,2.14-8.729,6.909-12.021,10.853
	c-4.675,5.6-18.422,22.408-10.046,29.759c7.254,6.366,18.553-1.514,23.94-6.55c9.371-8.762,14.514-21.681,18.691-33.518
	c4.889-13.852,8.585-28.843,9.043-43.582c0.092-2.98,0.51-7.979-2.541-9.768c-1.795-1.051-3.813-0.162-5.031,1.305
	c-3.748,4.512-4.959,11.709-6.349,17.218c-1.796,7.122-3.241,14.341-4.534,21.569c-1.981,11.08-3.114,22.428-2.848,33.684
	c0.159,6.774,0.124,18.015,8.246,20.223C155.467,95.304,156.787,90.48,153.68,89.635L153.68,89.635z"/>
<ellipse fill="#2BB673" cx="171.002" cy="91.547" rx="3.125" ry="2.813"/>
</svg>
