<?xml version="1.0" encoding="utf-8"?>
<!-- Generator: Adobe Illustrator 16.0.0, SVG Export Plug-In . SVG Version: 6.00 Build 0)  -->
<!DOCTYPE svg PUBLIC "-//W3C//DTD SVG 1.1//EN" "http://www.w3.org/Graphics/SVG/1.1/DTD/svg11.dtd">
<svg version="1.1" id="Layer_1" xmlns="http://www.w3.org/2000/svg" xmlns:xlink="http://www.w3.org/1999/xlink" x="0px" y="0px"
	 width="125.983px" height="96.254px" viewBox="0 0 125.983 96.254" enable-background="new 0 0 125.983 96.254"
	 xml:space="preserve">
<g>
	<path fill="#2BB673" d="M67.958,73.885c-4.398,1.75-9.074,3.643-13.855,3.888c-2.551,0.131,0.573-4.089,1.037-5.033
		c0.749-1.526-0.119-3.968-2.159-3.762c-2.546,0.257-5.352,3.294-7.477,4.675c-3.361,2.185-6.915,4.064-10.517,5.816
		c-6.488,3.155-13.426,5.563-20.508,6.95c-2.037,0.398-9.375,2.079-9.495-1.339c-0.112-3.167,3.232-5.938,5.399-7.742
		c7.366-6.131,17.265-9.743,26.318-12.469c3.927-1.182,7.982-2.194,12.071-2.595c1.22-0.12,2.545-0.219,3.759-0.005
		c1.175,0.207,0.314-1.1,0.057-0.447c-1.191,3,3.646,4.289,4.82,1.328c3.41-8.594-13.065-5.331-16.293-4.614
		c-11.652,2.588-24.248,7.297-33.666,14.788c-3.399,2.704-6.854,6.214-7.385,10.738c-0.52,4.422,2.069,7.221,6.355,7.766
		c7.086,0.9,14.699-1.595,21.275-3.924c4.277-1.516,8.43-3.396,12.479-5.438c2.244-1.132,4.418-2.395,6.569-3.693
		c1.296-0.782,2.552-1.628,3.806-2.474c0.057-0.039,3.055-2.386,2.431-2.322c-0.72-1.254-1.438-2.508-2.159-3.762
		c-1.383,2.815-4.95,7.866-1.673,10.783c5.114,4.552,14.955-0.23,20.14-2.294C72.247,77.528,70.958,72.691,67.958,73.885
		L67.958,73.885z"/>
	<path fill="#2BB673" d="M105.536,89.635c-4.254-1.155-4.221-8.451-4.421-11.963c-0.425-7.458-0.078-14.877,0.666-22.302
		c0.761-7.584,2.062-15.043,3.57-22.505c1.572-7.776,3.267-15.615,5.884-23.117c0.447-1.283,0.966-2.526,1.599-3.729
		c1.341-2.547-0.671-0.334-0.645-0.109c0.808,6.965-0.736,14.417-1.98,21.229c-2.718,14.881-7.399,29.983-14.533,43.354
		c-3.024,5.67-6.841,10.87-11.685,15.105c-2.592,2.267-12.099,8.686-15.323,4.327c-2.634-3.559,3.097-11.706,4.87-14.53
		c3.542-5.64,7.899-10.97,12.926-15.353c1.008-0.878,2.19-1.862,3.458-2.337c-0.204,0.076-0.528-1.772-0.755,0.527
		c-0.316,3.209,4.687,3.178,5,0c0.41-4.15-2.566-6.721-6.512-4.97c-4.818,2.14-8.729,6.909-12.021,10.853
		c-4.675,5.6-18.422,22.408-10.047,29.759c7.254,6.366,18.554-1.514,23.94-6.55c9.371-8.762,14.514-21.681,18.691-33.518
		c4.889-13.852,8.585-28.843,9.043-43.582c0.092-2.98,0.51-7.979-2.541-9.768c-1.795-1.051-3.813-0.162-5.031,1.305
		c-3.748,4.512-4.959,11.709-6.349,17.218c-1.796,7.122-3.241,14.341-4.534,21.569c-1.981,11.08-3.114,22.428-2.848,33.684
		c0.159,6.774,0.124,18.015,8.246,20.223C107.323,95.304,108.643,90.48,105.536,89.635L105.536,89.635z"/>
	<ellipse fill="#2BB673" cx="122.858" cy="91.547" rx="3.125" ry="2.813"/>
</g>
<g>
	<g>
		<path d="M67.174,254.67c0.635-0.887,1.272-1.769,1.969-2.608c2.1-2.529-2.502,1.129-2.593-2.565
			c0.013,0.54-0.881,2.976-1.304,4.149c-2.167,6.018-4.669,11.915-6.941,17.893c-1.216,3.2-11.124,25.972-1.18,25.037
			c3.182-0.299,3.211-5.302,0-5c-0.337,0.031,0.642,0.857,0.6,0.479c-0.099-0.897,0.035-1.824,0.187-2.707
			c0.497-2.899,1.432-5.736,2.354-8.522c2.245-6.787,4.976-13.41,7.59-20.06c1.361-3.461,4.207-8.335,3.582-12.208
			c-1.014-6.283-7.709,2.373-8.579,3.59C60.977,254.774,65.316,257.268,67.174,254.67L67.174,254.67z"/>
	</g>
</g>
<g>
	<g>
		<path d="M-9.235,277.296c-2.159,0.864-20.139,8.43-21.516,4.593c-0.916-2.554,2.613-5.787,3.356-8.079
			c0.544-1.677-1.303-3.8-3.075-3.075c-4.082,1.67-7.979,5.539-11.8,7.87c-4.643,2.833-9.508,5.292-14.454,7.547
			c-8.936,4.074-18.667,7.445-28.449,8.685c-3.564,0.451-10.715,1.676-10.679-3.484c0.032-4.622,4.762-8.576,8.004-11.195
			c10.439-8.436,24.18-13.481,36.919-17.176c5.266-1.527,10.699-2.839,16.179-3.263c1.631-0.126,3.342-0.194,4.946,0.172
			c1.152,0.264,0.671-0.428,0.328,0.406c-1.229,2.982,3.611,4.268,4.821,1.33c4.037-9.798-15.036-6.396-18.799-5.646
			c-14.383,2.867-28.9,8.415-41.414,16.065c-6.505,3.978-21.581,15.232-14.626,24.672c3.362,4.563,11.153,3.6,15.954,2.906
			c10.188-1.473,19.967-4.997,29.34-9.155c4.515-2.003,8.889-4.308,13.163-6.779c2.168-1.255,4.277-2.609,6.366-3.991
			c1.686-1.115,3.743-3.411,5.531-4.143c-1.025-1.024-2.05-2.05-3.075-3.075c-0.241,0.743-2.283,4.015-2.937,5.737
			c-0.828,2.182-1.071,5.507,0.802,7.274c6.303,5.948,20.1-0.834,26.445-3.374C-4.951,280.935-6.24,276.097-9.235,277.296
			L-9.235,277.296z"/>
	</g>
</g>
<g>
	<g>
		<path d="M28.341,287.103c-4.253-1.155-4.22-8.451-4.42-11.963c-0.425-7.458-0.078-14.877,0.666-22.302
			c0.76-7.584,2.063-15.043,3.57-22.505c1.572-7.776,3.268-15.616,5.884-23.117c0.447-1.283,0.966-2.526,1.599-3.729
			c1.341-2.548-0.671-0.333-0.646-0.109c0.807,6.965-0.735,14.417-1.979,21.229c-2.719,14.88-7.4,29.983-14.534,43.354
			c-3.024,5.67-6.84,10.871-11.684,15.106c-2.592,2.266-12.1,8.685-15.324,4.326c-2.633-3.559,3.097-11.706,4.871-14.53
			c3.542-5.64,7.899-10.97,12.926-15.353c1.007-0.878,2.19-1.862,3.458-2.337c-0.205,0.076-0.527-1.772-0.754,0.527
			c-0.316,3.209,4.687,3.178,5,0c0.41-4.151-2.567-6.721-6.512-4.97c-4.819,2.14-8.729,6.909-12.021,10.853
			c-4.675,5.6-18.422,22.408-10.046,29.759c7.254,6.366,18.554-1.514,23.94-6.55c9.372-8.762,14.514-21.681,18.691-33.517
			c4.888-13.854,8.587-28.843,9.042-43.583c0.093-2.98,0.512-7.98-2.539-9.768c-1.794-1.051-3.813-0.162-5.031,1.305
			c-3.748,4.512-4.959,11.709-6.349,17.218c-1.796,7.122-3.241,14.341-4.534,21.569c-1.981,11.08-3.114,22.427-2.849,33.684
			c0.16,6.773,0.125,18.014,8.246,20.223C30.128,292.771,31.449,287.948,28.341,287.103L28.341,287.103z"/>
	</g>
</g>
<ellipse cx="42.539" cy="289.015" rx="3.125" ry="2.813"/>
<g>
	<g>
		<path d="M155.311,210.646c-9.752,15.574-19.022,31.683-26.619,48.423c-3.079,6.786-8.342,16.575-6.382,24.328
			c2.338,9.246,14.974,1.217,19.098-1.525c2.671-1.775,0.17-6.107-2.523-4.316c-3.021,2.008-6.866,4.93-10.655,5.15
			c-1.375,0.08-1.356-1.01-1.217-3.159c0.558-8.592,5.687-17.584,9.396-25.131c6.951-14.141,14.858-27.893,23.221-41.246
			C161.345,210.429,157.018,207.921,155.311,210.646L155.311,210.646z"/>
	</g>
</g>
<g>
	<g>
		<path d="M123.969,240.549c0.176-3.2,9.34-4.766,11.491-5.271c8.514-1.999,17.33-2.756,26.034-3.358
			c16.615-1.15,33.85-1.694,50.417,0.409c3.192,0.405,3.153-4.6,0-5c-18.425-2.339-37.657-1.54-56.106,0.029
			c-8.805,0.748-17.817,1.748-26.299,4.332c-4.289,1.308-10.249,3.61-10.537,8.858C118.792,243.772,123.793,243.755,123.969,240.549
			L123.969,240.549z"/>
	</g>
</g>
<g>
	<g>
		<path d="M113.602,252.521c0.92-2.88,1.065-7.054-2.907-7.389c-3.279-0.276-6.733,2.7-9.12,4.552
			c-9.327,7.235-17.636,16.284-24.546,25.829c-3.047,4.209-11.117,16.924-0.738,17.869c3.042,0.276,6.439-1.091,9.226-2.018
			c5.845-1.943,11.361-4.868,16.616-8.042c9.872-5.964,18.891-13.529,27.021-21.68c2.535-2.542,4.961-5.204,7.188-8.02
			c1.979-2.499-1.535-6.063-3.535-3.535c-11.126,14.059-26.34,26.212-42.468,33.949c-3.957,1.898-8.259,3.479-12.585,4.284
			c-1.12,0.208-1.903-0.376-1.637,0.298c-0.685-1.728,2.002-5.695,3.084-7.421c5.371-8.566,12.669-16.179,20.065-23.013
			c2.901-2.68,5.94-5.346,9.381-7.319c0.761-0.437,2.11-0.674,1.565-0.786c-0.666-0.138-0.974-1.189-0.969-0.807
			c0.008,0.631-0.27,1.312-0.464,1.917C107.795,254.271,112.624,255.58,113.602,252.521L113.602,252.521z"/>
	</g>
</g>
<path d="M71.5,232.103c0.817,2.109,3.347,4.957,3.722,7.182c0.279,1.648,0.194,1.896,1.68,1.486c1.729-0.475,2.039-4.347,1.762-5.99
	c-0.377-2.226-0.441-2.195-1.257-4.307c-0.603-1.555-2.036-2.614-3.768-2.139C72.153,228.745,70.898,230.543,71.5,232.103
	L71.5,232.103z"/>
</svg>
