<?xml version="1.0" encoding="utf-8"?>
<!-- Generator: Adobe Illustrator 16.0.0, SVG Export Plug-In . SVG Version: 6.00 Build 0)  -->
<!DOCTYPE svg PUBLIC "-//W3C//DTD SVG 1.1//EN" "http://www.w3.org/Graphics/SVG/1.1/DTD/svg11.dtd">
<svg version="1.1" id="Layer_1" xmlns="http://www.w3.org/2000/svg" xmlns:xlink="http://www.w3.org/1999/xlink" x="0px" y="0px"
	 width="431.652px" height="150.326px" viewBox="0 0 431.652 150.326" enable-background="new 0 0 431.652 150.326"
	 xml:space="preserve">
<path fill="#929497" d="M260.777,58.363h3.553v33.6h-3.553V58.363z"/>
<path fill="#929497" d="M392.681,61.435h-11.809v-3.071h27.168v3.071h-11.809v30.528h-3.551V61.435z"/>
<polygon fill="#231F20" points="42.475,58.363 38.971,58.363 23.611,91.963 27.307,91.963 30.973,83.801 33.014,79.257 
	33.014,79.257 40.698,62.059 48.196,78.837 48.196,78.837 50.504,83.977 54.091,91.963 57.835,91.963 "/>
<path fill="#231F20" d="M131.227,66.451c-1.505-2.544-3.617-4.528-6.337-5.952s-5.855-2.136-9.407-2.136h-13.681v3.071h13.488
	c2.943,0,5.521,0.585,7.729,1.752c2.208,1.169,3.919,2.784,5.136,4.849c1.216,2.063,1.824,4.439,1.824,7.128
	c0,2.688-0.608,5.063-1.824,7.128c-1.217,2.063-2.928,3.68-5.136,4.848c-2.208,1.169-4.785,1.752-7.729,1.752h-13.488v3.072h13.681
	c3.552,0,6.688-0.712,9.407-2.136s4.832-3.408,6.337-5.952c1.503-2.544,2.256-5.448,2.256-8.712
	C133.483,71.898,132.73,68.995,131.227,66.451z"/>
<path fill="#929497" d="M209.275,66.451c-1.505-2.544-3.617-4.528-6.337-5.952s-5.855-2.136-9.407-2.136H179.85v3.071h13.488
	c2.943,0,5.521,0.585,7.729,1.752c2.208,1.169,3.919,2.784,5.136,4.849c1.216,2.063,1.824,4.439,1.824,7.128
	c0,2.688-0.608,5.063-1.824,7.128c-1.217,2.063-2.928,3.68-5.136,4.848c-2.208,1.169-4.785,1.752-7.729,1.752H179.85v3.072h13.681
	c3.552,0,6.688-0.712,9.407-2.136s4.832-3.408,6.337-5.952c1.503-2.544,2.256-5.448,2.256-8.712
	C211.531,71.898,210.778,68.995,209.275,66.451z"/>
<path fill="#929497" d="M312.953,83.875c1.505,2.544,3.617,4.528,6.337,5.952s5.855,2.136,9.407,2.136h13.681v-3.071h-13.488
	c-2.943,0-5.521-0.585-7.729-1.752c-2.208-1.169-3.919-2.784-5.136-4.849c-1.216-2.063-1.824-4.439-1.824-7.128
	c0-2.688,0.608-5.063,1.824-7.128c1.217-2.063,2.928-3.68,5.136-4.848c2.208-1.169,4.785-1.752,7.729-1.752h13.488v-3.072h-13.681
	c-3.552,0-6.688,0.712-9.407,2.136s-4.832,3.408-6.337,5.952c-1.503,2.544-2.256,5.448-2.256,8.712
	C310.697,78.428,311.45,81.331,312.953,83.875z"/>
</svg>
