<?xml version="1.0" encoding="utf-8"?>
<!-- Generator: Adobe Illustrator 16.0.0, SVG Export Plug-In . SVG Version: 6.00 Build 0)  -->
<!DOCTYPE svg PUBLIC "-//W3C//DTD SVG 1.1//EN" "http://www.w3.org/Graphics/SVG/1.1/DTD/svg11.dtd">
<svg version="1.1" id="Layer_1" xmlns="http://www.w3.org/2000/svg" xmlns:xlink="http://www.w3.org/1999/xlink" x="0px" y="0px"
	 width="315.579px" height="102.748px" viewBox="0 0 315.579 102.748" enable-background="new 0 0 315.579 102.748"
	 xml:space="preserve">
<path d="M168.462,57.202c0.635-0.887,1.272-1.769,1.969-2.608c2.1-2.53-2.502,1.129-2.593-2.565
	c0.013,0.541-0.881,2.976-1.304,4.149c-2.167,6.018-4.669,11.915-6.941,17.894c-1.216,3.199-11.124,25.971-1.18,25.036
	c3.182-0.299,3.21-5.302,0-5c-0.336,0.031,0.641,0.857,0.6,0.479c-0.098-0.897,0.036-1.824,0.187-2.707
	c0.497-2.899,1.431-5.736,2.353-8.522c2.246-6.787,4.976-13.41,7.59-20.06c1.361-3.461,4.207-8.335,3.582-12.208
	c-1.015-6.283-7.709,2.373-8.58,3.59C162.264,57.306,166.604,59.799,168.462,57.202L168.462,57.202z"/>
<path d="M92.052,79.828c-2.159,0.864-20.139,8.43-21.516,4.593c-0.916-2.554,2.613-5.787,3.356-8.079
	c0.544-1.677-1.303-3.8-3.075-3.075c-4.082,1.67-7.979,5.539-11.8,7.87c-4.643,2.833-9.508,5.292-14.454,7.547
	c-8.936,4.073-18.667,7.445-28.449,8.685c-3.564,0.451-10.715,1.676-10.679-3.484c0.032-4.622,4.762-8.576,8.004-11.195
	c10.439-8.436,24.18-13.481,36.919-17.176c5.266-1.527,10.699-2.838,16.179-3.262c1.631-0.126,3.342-0.194,4.946,0.172
	c1.152,0.263,0.671-0.429,0.328,0.406c-1.229,2.982,3.611,4.267,4.821,1.329c4.037-9.797-15.036-6.395-18.799-5.645
	c-14.383,2.867-28.9,8.415-41.414,16.065C9.914,78.555-5.162,89.81,1.792,99.25c3.362,4.563,11.153,3.601,15.954,2.906
	c10.188-1.473,19.967-4.997,29.34-9.155c4.515-2.003,8.889-4.308,13.163-6.779c2.168-1.255,4.277-2.609,6.366-3.991
	c1.686-1.115,3.743-3.411,5.531-4.143c-1.025-1.024-2.05-2.05-3.075-3.075c-0.241,0.743-2.283,4.015-2.937,5.737
	c-0.828,2.182-1.071,5.507,0.802,7.274c6.303,5.948,20.1-0.834,26.445-3.374C96.336,83.466,95.047,78.628,92.052,79.828
	L92.052,79.828z"/>
<path d="M129.628,89.634c-4.252-1.155-4.219-8.451-4.419-11.963c-0.425-7.458-0.079-14.876,0.666-22.302
	c0.76-7.583,2.062-15.043,3.571-22.505c1.572-7.776,3.267-15.615,5.883-23.117c0.448-1.283,0.966-2.526,1.599-3.729
	c1.341-2.548-0.671-0.333-0.646-0.109c0.807,6.965-0.735,14.417-1.98,21.229c-2.718,14.88-7.4,29.984-14.533,43.354
	c-3.025,5.67-6.841,10.871-11.685,15.106c-2.592,2.266-12.1,8.685-15.324,4.326c-2.633-3.559,3.097-11.706,4.871-14.53
	c3.542-5.64,7.899-10.97,12.926-15.352c1.007-0.878,2.19-1.863,3.458-2.338c-0.204,0.077-0.527-1.771-0.754,0.528
	c-0.316,3.208,4.687,3.178,5,0c0.41-4.151-2.567-6.721-6.512-4.97c-4.819,2.139-8.729,6.909-12.021,10.853
	c-4.675,5.601-18.422,22.408-10.046,29.759c7.254,6.366,18.554-1.514,23.94-6.55c9.371-8.762,14.514-21.681,18.69-33.517
	c4.888-13.853,8.587-28.842,9.043-43.583c0.092-2.979,0.511-7.979-2.54-9.767c-1.794-1.051-3.812-0.163-5.031,1.304
	c-3.749,4.512-4.959,11.708-6.349,17.218c-1.795,7.122-3.242,14.341-4.534,21.569c-1.981,11.08-3.114,22.427-2.848,33.684
	c0.16,6.773,0.124,18.014,8.246,20.223C131.415,95.303,132.736,90.48,129.628,89.634L129.628,89.634z"/>
<ellipse cx="143.826" cy="91.546" rx="3.125" ry="2.813"/>
<path d="M256.6,13.178c-9.754,15.575-19.023,31.682-26.62,48.423c-3.079,6.786-8.343,16.575-6.382,24.328
	c2.338,9.246,14.974,1.217,19.098-1.524c2.671-1.776,0.17-6.108-2.523-4.318c-3.021,2.009-6.866,4.931-10.656,5.151
	c-1.375,0.08-1.356-1.01-1.217-3.159c0.559-8.592,5.688-17.584,9.397-25.131c6.951-14.14,14.858-27.892,23.22-41.246
	C262.633,12.96,258.306,10.453,256.6,13.178L256.6,13.178z"/>
<path d="M225.256,43.081c0.176-3.2,9.34-4.766,11.491-5.271c8.514-1.999,17.33-2.755,26.035-3.358
	c16.615-1.151,33.85-1.695,50.417,0.409c3.192,0.405,3.153-4.6,0-5c-18.425-2.339-37.658-1.54-56.107,0.029
	c-8.805,0.749-17.817,1.748-26.299,4.333c-4.289,1.307-10.249,3.61-10.537,8.858C220.079,46.304,225.08,46.287,225.256,43.081
	L225.256,43.081z"/>
<path d="M214.89,55.053c0.92-2.879,1.065-7.054-2.907-7.388c-3.279-0.276-6.733,2.7-9.12,4.552
	c-9.327,7.235-17.636,16.284-24.547,25.829c-3.047,4.209-11.117,16.924-0.737,17.869c3.041,0.276,6.438-1.091,9.225-2.018
	c5.845-1.943,11.361-4.868,16.616-8.042c9.873-5.964,18.891-13.529,27.021-21.68c2.535-2.542,4.961-5.204,7.188-8.02
	c1.979-2.499-1.535-6.063-3.535-3.535c-11.126,14.059-26.341,26.212-42.469,33.949c-3.957,1.898-8.259,3.479-12.585,4.284
	c-1.12,0.208-1.903-0.376-1.637,0.298c-0.685-1.728,2.003-5.695,3.085-7.421c5.37-8.566,12.669-16.179,20.065-23.012
	c2.9-2.681,5.94-5.346,9.38-7.32c0.762-0.436,2.111-0.673,1.566-0.786c-0.666-0.138-0.974-1.189-0.969-0.807
	c0.008,0.63-0.27,1.312-0.464,1.917C209.083,56.804,213.911,58.112,214.89,55.053L214.89,55.053z"/>
<path d="M172.787,34.634c0.818,2.109,3.348,4.957,3.723,7.182c0.279,1.648,0.193,1.896,1.68,1.486
	c1.729-0.475,2.039-4.347,1.762-5.99c-0.377-2.226-0.441-2.195-1.258-4.307c-0.602-1.555-2.035-2.614-3.768-2.139
	C173.439,31.277,172.186,33.075,172.787,34.634L172.787,34.634z"/>
</svg>
