<?xml version="1.0" encoding="utf-8"?>
<!-- Generator: Adobe Illustrator 16.0.0, SVG Export Plug-In . SVG Version: 6.00 Build 0)  -->
<!DOCTYPE svg PUBLIC "-//W3C//DTD SVG 1.1//EN" "http://www.w3.org/Graphics/SVG/1.1/DTD/svg11.dtd">
<svg version="1.1" id="Layer_1" xmlns="http://www.w3.org/2000/svg" xmlns:xlink="http://www.w3.org/1999/xlink" x="0px" y="0px"
	 width="808.928px" height="272.616px" viewBox="-440.334 -136.281 808.928 272.616"
	 enable-background="new -440.334 -136.281 808.928 272.616" xml:space="preserve">
<path fill="#231F20" d="M215.401-99.2c-22.358,24.114-43.887,49.424-62.88,76.282c-8.396,11.878-21.009,27.869-21.062,43.245
	c-0.059,16.937,21.978,11.085,31.42,7.758c4.838-1.706,9.557-3.765,14.235-5.868c4.969-2.235,0.661-9.526-4.271-7.307
	c-8.475,3.811-17.948,8.226-27.394,8.708c-4.694,0.239-5.782-0.921-5.453-5.015c0.481-6.002,4.188-12.16,7.03-17.284
	c4.677-8.43,10.195-16.397,15.832-24.206c17.819-24.676,37.837-48.014,58.525-70.329C225.091-97.211,219.12-103.21,215.401-99.2
	L215.401-99.2z"/>
<path fill="#231F20" d="M132.405-47.73c-0.023,0.452,0.244-0.325,1.379-1.091c1.824-1.233,3.914-2.017,5.977-2.739
	c7.019-2.455,14.48-3.731,21.797-4.913c21.323-3.447,43.046-4.711,64.598-5.754c42.641-2.064,86.081-3.111,128.668,0.583
	c5.438,0.471,5.392-7.995,0-8.463c-45.774-3.971-92.521-2.63-138.329-0.083c-21.757,1.212-43.708,2.832-65.136,6.956
	c-8.235,1.585-26.797,4.245-27.416,15.503C123.643-42.273,132.107-42.303,132.405-47.73L132.405-47.73z"/>
<path fill="#231F20" d="M65.942,8.552c2.258-4.74,4.406-12.124-1.729-15.054c-5.634-2.69-12.881,0.258-18.182,2.438
	C30.92,2.154,13.774,12.057,3.661,25.215c-3.028,3.939-5.502,10.128-0.857,13.965c6.725,5.552,19.01,2.2,26.507,0.845
	c41.372-7.48,81.33-27.98,115.859-51.408c6.502-4.413,12.866-9.1,18.837-14.214c4.152-3.556-1.861-9.513-5.983-5.984
	c-23.251,19.909-51.606,35.067-79.521,47.221c-18.136,7.896-37.205,13.913-56.733,17.138c-3.736,0.618-7.582,0.938-11.363,0.616
	c-2.34-0.199-1.635-0.872-1.816,0.262c0.709-4.43,6.745-8.698,9.938-11.364c5.963-4.982,12.625-9.192,19.382-13.003
	c5.834-3.291,11.985-6.349,18.523-7.938c1.424-0.348,4.312-0.057,3.656-0.58c-0.5-0.402-0.204-0.689-0.231,0.14
	c-0.038,1.093-0.76,2.402-1.222,3.372C56.3,9.18,63.595,13.478,65.942,8.552L65.942,8.552z"/>
<ellipse transform="matrix(0.8994 -0.437 0.437 0.8994 -17.4692 -4.2487)" fill="#231F20" cx="-17.967" cy="35.837" rx="6.542" ry="5.887"/>
<g>
	<path fill="#231F20" d="M-399.512,105.743h-13.296l-2.865,6.375h-2.625l10.91-23.865h2.489l10.91,23.865h-2.66L-399.512,105.743z
		 M-400.433,103.698l-5.728-12.82l-5.728,12.82H-400.433z"/>
	<path fill="#231F20" d="M-362.762,88.253h9.716c2.524,0,4.75,0.506,6.683,1.518c1.932,1.012,3.432,2.422,4.501,4.229
		c1.068,1.807,1.602,3.869,1.602,6.187c0,2.319-0.534,4.382-1.602,6.188c-1.069,1.808-2.569,3.217-4.501,4.228
		c-1.933,1.011-4.159,1.517-6.683,1.517h-9.716V88.253z M-353.181,109.936c2.091,0,3.921-0.415,5.49-1.244
		c1.567-0.83,2.784-1.978,3.648-3.443c0.863-1.467,1.294-3.154,1.294-5.063s-0.431-3.597-1.294-5.063
		c-0.864-1.467-2.081-2.613-3.648-3.443c-1.569-0.83-3.398-1.245-5.49-1.245h-7.056v19.502H-353.181z"/>
	<path fill="#231F20" d="M-307.326,88.253h9.716c2.524,0,4.75,0.506,6.683,1.518c1.932,1.012,3.431,2.422,4.501,4.229
		c1.068,1.807,1.602,3.869,1.602,6.187c0,2.319-0.534,4.382-1.602,6.188c-1.07,1.808-2.569,3.217-4.501,4.228
		c-1.933,1.011-4.159,1.517-6.683,1.517h-9.716V88.253z M-297.745,109.936c2.091,0,3.921-0.415,5.49-1.244
		c1.567-0.83,2.784-1.978,3.648-3.443c0.863-1.467,1.294-3.154,1.294-5.063s-0.432-3.597-1.294-5.063
		c-0.864-1.467-2.081-2.613-3.648-3.443c-1.569-0.83-3.398-1.245-5.49-1.245h-7.057v19.502H-297.745z"/>
	<path fill="#231F20" d="M-249.845,88.253h2.524v23.865h-2.524V88.253z"/>
	<path fill="#231F20" d="M-208.302,110.755c-1.898-1.045-3.387-2.494-4.466-4.348c-1.08-1.851-1.619-3.926-1.619-6.222
		c0-2.294,0.539-4.368,1.619-6.222c1.079-1.852,2.573-3.301,4.483-4.348c1.909-1.044,4.046-1.566,6.41-1.566
		c1.772,0,3.41,0.294,4.909,0.886c1.501,0.592,2.772,1.455,3.818,2.59l-1.602,1.604c-1.865-1.886-4.217-2.829-7.058-2.829
		c-1.886,0-3.602,0.431-5.147,1.296c-1.546,0.862-2.757,2.044-3.632,3.545c-0.875,1.499-1.313,3.183-1.313,5.045
		c0,1.865,0.438,3.546,1.313,5.047c0.875,1.499,2.086,2.681,3.632,3.546c1.545,0.862,3.261,1.294,5.147,1.294
		c2.864,0,5.217-0.954,7.058-2.863l1.602,1.602c-1.046,1.138-2.324,2.007-3.835,2.608c-1.512,0.604-3.154,0.904-4.927,0.904
		C-204.274,112.323-206.405,111.801-208.302,110.755z"/>
	<path fill="#231F20" d="M-156.158,90.434h-8.385v-2.182h19.295v2.182h-8.385v21.684h-2.524V90.434z"/>
	<path fill="#231F20" d="M-116.559,111.743c-0.354-0.363-0.529-0.807-0.529-1.329s0.175-0.96,0.529-1.313
		c0.352-0.352,0.778-0.528,1.277-0.528c0.501,0,0.933,0.177,1.296,0.528c0.364,0.353,0.546,0.79,0.546,1.313
		s-0.182,0.966-0.546,1.329c-0.363,0.364-0.795,0.546-1.296,0.546C-115.78,112.289-116.207,112.107-116.559,111.743z"/>
	<path fill="#231F20" d="M-77.215,110.755c-1.897-1.045-3.387-2.494-4.466-4.348c-1.079-1.851-1.618-3.926-1.618-6.222
		c0-2.294,0.539-4.368,1.618-6.222c1.08-1.852,2.574-3.301,4.483-4.348c1.909-1.044,4.046-1.566,6.41-1.566
		c1.772,0,3.41,0.294,4.91,0.886c1.501,0.592,2.772,1.455,3.818,2.59l-1.602,1.604c-1.864-1.886-4.217-2.829-7.058-2.829
		c-1.886,0-3.602,0.431-5.147,1.296c-1.545,0.862-2.757,2.044-3.631,3.545c-0.875,1.499-1.313,3.183-1.313,5.045
		c0,1.865,0.438,3.546,1.313,5.047c0.875,1.499,2.086,2.681,3.631,3.546c1.546,0.862,3.262,1.294,5.147,1.294
		c2.865,0,5.217-0.954,7.058-2.863l1.602,1.602c-1.046,1.138-2.324,2.007-3.835,2.608c-1.513,0.604-3.154,0.904-4.928,0.904
		C-73.187,112.323-75.317,111.801-77.215,110.755z"/>
	<path fill="#231F20" d="M-13.104,112.118l-5.455-7.671c-0.613,0.069-1.25,0.103-1.909,0.103h-6.409v7.568H-29.4V88.253h8.933
		c3.046,0,5.432,0.729,7.159,2.182c1.728,1.455,2.592,3.457,2.592,6.001c0,1.864-0.473,3.438-1.415,4.722
		c-0.944,1.285-2.29,2.211-4.04,2.779l5.83,8.182H-13.104z M-15.116,100.834c1.25-1.045,1.876-2.511,1.876-4.398
		c0-1.931-0.627-3.414-1.876-4.448c-1.25-1.035-3.056-1.553-5.42-1.553h-6.341v11.968h6.341
		C-18.172,102.402-16.365,101.88-15.116,100.834z"/>
	<path fill="#231F20" d="M39.399,109.936v2.182H22.522V88.253h16.364v2.182h-13.84v8.49h12.341v2.146H25.047v8.865H39.399z"/>
	<path fill="#231F20" d="M87.573,105.743H74.276l-2.862,6.375h-2.625l10.909-23.865h2.489l10.91,23.865h-2.661L87.573,105.743z
		 M86.654,103.698l-5.729-12.82l-5.726,12.82H86.654z"/>
	<path fill="#231F20" d="M127.771,90.434h-8.388v-2.182h19.297v2.182h-8.387v21.684h-2.522V90.434z"/>
	<path fill="#231F20" d="M169.974,88.253h2.526v23.865h-2.526V88.253z"/>
	<path fill="#231F20" d="M227.114,88.253l-10.569,23.865h-2.486L203.49,88.253h2.728l9.134,20.729l9.207-20.729H227.114z"/>
	<path fill="#231F20" d="M274.71,109.936v2.182h-16.877V88.253h16.364v2.182h-13.842v8.49h12.341v2.146h-12.341v8.865H274.71z"/>
</g>
<path fill="#231F20" d="M-65.878-23.596c-2.006,4.143-6.773,7.15-10.375,9.746c-6.498,4.683-13.47,8.725-20.5,12.543
	c-6.629,3.6-13.463,6.873-20.515,9.561c-4.438,1.69-10.546,4.372-15.249,2.22c-9.314-4.262-1.198-24.972,0.999-31.362
	c1.731-5.036,3.771-9.965,5.868-14.858c0.972-2.268,3.038-5.37,2.86-7.964c-0.138-2.013-1.218-3.398-3.107-4.08
	c-4.842-1.747-13.075,8.468-16.351,11.057c-9.237,7.3-18.971,13.978-28.88,20.327c-17.538,11.237-36.049,20.955-55.095,29.365
	c-27.159,11.994-60.295,24.861-90.621,21.872c-7.892-0.776-13.758-3.678-14.772-11.944c-0.996-8.119,1.768-15.939,5.768-22.88
	c10.938-18.979,30.916-32.632,49.14-43.857c22.467-13.837,46.725-24.851,71.479-33.897c20.235-7.397,41.532-14.092,63.046-16.366
	c6.025-0.636,12.649-1.16,18.503,0.757c3.066,1.003,3.321,2.109,1.691,5.5c-9.027,18.781-37.667,25.666-55.838,30.018
	c-31.893,7.638-65.651,9.671-98.313,7.299c-13-0.945-26.118-2.81-38.518-6.949c-6.585-2.197-16.184-5.982-17.33-13.849
	c-0.784-5.384-8.938-3.086-8.161,2.251c2.371,16.267,26.206,21.312,39.137,23.831c26.694,5.199,54.646,4.904,81.622,2.489
	c26.431-2.365,53.566-7.113,77.797-18.33c10.643-4.928,32.615-17.831,28.522-32.805c-3.193-11.687-22.441-9.443-31.094-8.458
	c-21.655,2.466-42.894,9.067-63.314,16.449c-24.53,8.87-48.456,19.818-70.879,33.166c-19.061,11.346-37.938,24.916-51.184,42.969
	c-8.301,11.313-13.568,26.154-9.062,40.04c5.062,15.595,28.557,14.013,41.069,12.607c28.506-3.196,56.208-13.72,82.133-25.543
	c15.994-7.295,31.442-15.762,46.36-25.048c8.085-5.033,15.937-10.436,23.622-16.059c3.096-2.265,6.128-4.615,9.156-6.971
	c2.055-1.598,4.074-3.245,6.091-4.89c1.983-1.618,5.74-2.649,2.025-3.99c-1.036-1.36-2.071-2.721-3.107-4.081
	c-0.108-1.574-0.583,1.076-0.964,1.969c-1.142,2.674-2.29,5.346-3.406,8.032c-2.817,6.782-5.318,13.694-7.169,20.804
	c-2.653,10.194-4.803,27.17,8.012,31.572c12.875,4.422,29.666-6.059,40.579-11.751c8.15-4.252,16.069-9.023,23.528-14.399
	c4.367-3.147,9.686-6.85,12.103-11.84C-56.201-24.214-63.498-28.507-65.878-23.596L-65.878-23.596z"/>
<path fill="#231F20" d="M-38.881,30.493c-7.197-1.956-7.142-14.305-7.48-20.249c-0.719-12.624-0.133-25.182,1.127-37.749
	c1.287-12.837,3.49-25.463,6.044-38.093c2.661-13.163,5.529-26.433,9.958-39.129c0.758-2.172,1.636-4.276,2.707-6.311
	c2.27-4.313-1.136-0.564-1.092-0.186c1.365,11.789-1.245,24.403-3.352,35.934c-4.601,25.187-12.525,50.751-24.6,73.384
	c-5.12,9.597-11.579,18.4-19.778,25.569c-4.387,3.835-20.482,14.7-25.94,7.323c-4.458-6.023,5.243-19.814,8.245-24.595
	c5.996-9.546,13.371-18.568,21.881-25.986c1.704-1.486,3.707-3.152,5.853-3.956c-0.346,0.129-0.893-3-1.277,0.893
	c-0.536,5.431,7.933,5.378,8.463,0c0.693-7.027-4.346-11.376-11.022-8.412c-8.158,3.622-14.776,11.695-20.349,18.37
	c-7.913,9.478-31.184,37.929-17.006,50.371c12.278,10.775,31.406-2.563,40.524-11.087c15.862-14.83,24.567-36.697,31.636-56.731
	c8.274-23.449,14.535-48.821,15.307-73.771c0.156-5.045,0.865-13.508-4.299-16.531c-3.037-1.78-6.452-0.276-8.516,2.207
	c-6.345,7.637-8.395,19.819-10.746,29.144c-3.039,12.055-5.487,24.274-7.674,36.509c-3.354,18.754-5.271,37.961-4.821,57.015
	c0.271,11.465,0.21,30.49,13.958,34.229C-35.856,40.089-33.621,31.925-38.881,30.493L-38.881,30.493z"/>
</svg>
